<svg xmlns="http://www.w3.org/2000/svg" xmlns:xlink="http://www.w3.org/1999/xlink" width="394" zoomAndPan="magnify" viewBox="0 0 295.5 357.74999" height="477" preserveAspectRatio="xMidYMid meet" version="1.2"><defs><clipPath id="1786c2fde4"><path d="M 8.382812 1.761719 L 286.191406 1.761719 L 286.191406 352.277344 L 8.382812 352.277344 Z M 8.382812 1.761719 "/></clipPath><clipPath id="9fd7713413"><path d="M 23.359375 1.761719 L 271.21875 1.761719 C 275.1875 1.761719 278.996094 3.339844 281.804688 6.148438 C 284.613281 8.957031 286.191406 12.765625 286.191406 16.738281 L 286.191406 337.109375 C 286.191406 341.078125 284.613281 344.890625 281.804688 347.695312 C 278.996094 350.503906 275.1875 352.082031 271.21875 352.082031 L 23.359375 352.082031 C 19.386719 352.082031 15.578125 350.503906 12.769531 347.695312 C 9.960938 344.890625 8.382812 341.078125 8.382812 337.109375 L 8.382812 16.738281 C 8.382812 12.765625 9.960938 8.957031 12.769531 6.148438 C 15.578125 3.339844 19.386719 1.761719 23.359375 1.761719 Z M 23.359375 1.761719 "/></clipPath></defs><g id="7cdb42b7c0"><g clip-rule="nonzero" clip-path="url(#1786c2fde4)"><g clip-rule="nonzero" clip-path="url(#9fd7713413)"><path style=" stroke:none;fill-rule:nonzero;fill:#ac0048;fill-opacity:1;" d="M 8.382812 1.761719 L 286.191406 1.761719 L 286.191406 352.277344 L 8.382812 352.277344 Z M 8.382812 1.761719 "/></g></g></g></svg>