<svg xmlns="http://www.w3.org/2000/svg" xmlns:xlink="http://www.w3.org/1999/xlink" width="500" zoomAndPan="magnify" viewBox="0 0 375 374.999991" height="500" preserveAspectRatio="xMidYMid meet" version="1.2"><defs><clipPath id="96a366ffef"><path d="M 74.300781 13.34375 L 300.800781 13.34375 L 300.800781 361.34375 L 74.300781 361.34375 Z M 74.300781 13.34375 "/></clipPath></defs><g id="00809e5b0b"><g clip-rule="nonzero" clip-path="url(#96a366ffef)"><path style=" stroke:none;fill-rule:nonzero;fill:#ac0048;fill-opacity:1;" d="M 181.445312 165.765625 C 182.414062 165.800781 183.339844 166.082031 184.171875 166.554688 C 185.007812 167.019531 185.757812 167.683594 186.382812 168.488281 C 187.011719 169.292969 187.515625 170.238281 187.863281 171.277344 C 188.207031 172.316406 188.402344 173.449219 188.402344 174.632812 C 188.402344 175.640625 188.269531 176.601562 188.011719 177.492188 C 187.757812 178.382812 187.394531 179.199219 186.933594 179.921875 C 186.464844 180.640625 185.914062 181.269531 185.285156 181.773438 C 184.65625 182.28125 183.960938 182.664062 183.210938 182.898438 L 183.210938 200.855469 C 183.960938 201.089844 184.65625 201.472656 185.285156 201.980469 C 185.914062 202.480469 186.464844 203.105469 186.933594 203.828125 C 187.394531 204.546875 187.757812 205.363281 188.011719 206.246094 C 188.269531 207.128906 188.402344 208.085938 188.402344 209.082031 C 188.402344 210.273438 188.207031 211.414062 187.863281 212.453125 C 187.515625 213.496094 187.011719 214.441406 186.382812 215.238281 C 185.757812 216.042969 185.007812 216.703125 184.171875 217.167969 C 183.339844 217.636719 182.414062 217.914062 181.445312 217.949219 C 180.46875 217.988281 179.539062 217.78125 178.691406 217.375 C 177.84375 216.960938 177.078125 216.351562 176.433594 215.582031 C 175.785156 214.8125 175.265625 213.886719 174.902344 212.847656 C 174.539062 211.808594 174.34375 210.65625 174.34375 209.441406 C 174.34375 208.417969 174.488281 207.441406 174.75 206.527344 C 175.011719 205.617188 175.394531 204.769531 175.871094 204.023438 C 176.347656 203.273438 176.925781 202.621094 177.570312 202.09375 C 178.214844 201.566406 178.929688 201.160156 179.695312 200.902344 L 179.695312 182.847656 C 178.929688 182.59375 178.214844 182.191406 177.570312 181.660156 C 176.925781 181.128906 176.347656 180.476562 175.871094 179.726562 C 175.394531 178.976562 175.011719 178.125 174.75 177.207031 C 174.488281 176.289062 174.34375 175.304688 174.34375 174.273438 C 174.34375 173.070312 174.539062 171.921875 174.902344 170.882812 C 175.265625 169.847656 175.785156 168.917969 176.433594 168.144531 C 177.078125 167.375 177.84375 166.761719 178.691406 166.347656 C 179.539062 165.9375 180.46875 165.726562 181.445312 165.765625 Z M 283.097656 83.121094 L 274.390625 83.121094 L 274.390625 39.621094 L 220.015625 30.921875 L 283.097656 30.921875 Z M 283.097656 283.214844 L 274.390625 283.214844 L 274.390625 100.519531 L 283.097656 100.519531 Z M 74.296875 13.519531 L 74.296875 344.113281 L 91.699219 344.113281 L 91.699219 30.921875 L 165.644531 30.921875 L 165.644531 361.152344 L 274.390625 344.113281 L 274.390625 300.617188 L 283.097656 300.617188 L 283.097656 344.113281 L 300.492188 344.113281 L 300.492188 13.519531 L 74.296875 13.519531 "/></g></g></svg>