<svg xmlns="http://www.w3.org/2000/svg" xmlns:xlink="http://www.w3.org/1999/xlink" width="500" zoomAndPan="magnify" viewBox="0 0 375 374.999991" height="500" preserveAspectRatio="xMidYMid meet" version="1.2"><defs><clipPath id="0db967f918"><path d="M 24.882812 13.34375 L 350 13.34375 L 350 361.34375 L 24.882812 361.34375 Z M 24.882812 13.34375 "/></clipPath></defs><g id="9928bcb79f"><g clip-rule="nonzero" clip-path="url(#0db967f918)"><path style=" stroke:none;fill-rule:nonzero;fill:#ac0048;fill-opacity:1;" d="M 291.753906 94.835938 L 291.753906 42.34375 C 291.753906 26.335938 278.765625 13.34375 262.753906 13.34375 L 111.957031 13.34375 C 95.949219 13.34375 82.957031 26.335938 82.957031 42.34375 L 82.957031 133.289062 L 43.339844 188.796875 C 31.277344 205.613281 24.957031 225.394531 24.957031 246.097656 L 24.957031 355.546875 C 24.957031 358.734375 27.566406 361.34375 30.753906 361.34375 L 80.34375 361.34375 C 86.492188 361.34375 92.410156 359.953125 97.746094 357.457031 C 101.980469 359.835938 106.792969 361.34375 111.957031 361.34375 L 262.753906 361.34375 C 278.765625 361.34375 291.753906 348.351562 291.753906 332.34375 L 291.753906 242.214844 C 302.425781 232.816406 349.753906 189.433594 349.753906 158.34375 C 349.753906 125.109375 324.234375 97.792969 291.753906 94.835938 Z M 256.957031 158.34375 C 256.957031 142.335938 269.949219 129.34375 285.957031 129.34375 C 301.964844 129.34375 314.957031 142.335938 314.957031 158.34375 C 314.957031 174.351562 301.964844 187.34375 285.957031 187.34375 C 269.949219 187.34375 256.957031 174.351562 256.957031 158.34375 Z M 280.15625 332.34375 C 280.15625 341.914062 272.324219 349.746094 262.753906 349.746094 L 111.957031 349.746094 C 111.027344 349.746094 110.15625 349.628906 109.289062 349.453125 C 115.320312 343.539062 119.496094 335.824219 120.828125 327.066406 C 122.917969 313.03125 117.871094 299.285156 107.78125 290.238281 L 145.132812 251.957031 C 150.003906 246.910156 152.730469 239.894531 152.554688 232.816406 C 152.324219 225.625 149.367188 218.953125 144.085938 214.140625 C 134.113281 204.976562 117.988281 205.730469 108.128906 215.882812 L 94.554688 229.800781 L 94.554688 42.34375 C 94.554688 32.773438 102.386719 24.945312 111.957031 24.945312 L 262.753906 24.945312 C 272.324219 24.945312 280.15625 32.773438 280.15625 42.34375 L 280.15625 94.835938 C 247.675781 97.792969 222.15625 125.109375 222.15625 158.34375 C 222.15625 189.433594 269.484375 232.816406 280.15625 242.214844 Z M 280.15625 332.34375 "/></g><path style=" stroke:none;fill-rule:nonzero;fill:#ac0048;fill-opacity:1;" d="M 204.753906 36.546875 L 169.957031 36.546875 C 166.765625 36.546875 164.15625 39.15625 164.15625 42.34375 C 164.15625 45.535156 166.765625 48.144531 169.957031 48.144531 L 204.753906 48.144531 C 207.945312 48.144531 210.554688 45.535156 210.554688 42.34375 C 210.554688 39.15625 207.945312 36.546875 204.753906 36.546875 Z M 204.753906 36.546875 "/><path style=" stroke:none;fill-rule:nonzero;fill:#ac0048;fill-opacity:1;" d="M 207.65625 317.84375 C 207.65625 318.511719 207.625 319.171875 207.558594 319.835938 C 207.492188 320.496094 207.394531 321.152344 207.265625 321.804688 C 207.136719 322.457031 206.972656 323.101562 206.78125 323.738281 C 206.589844 324.375 206.363281 325 206.109375 325.613281 C 205.855469 326.226562 205.570312 326.828125 205.257812 327.414062 C 204.945312 328 204.605469 328.570312 204.234375 329.121094 C 203.863281 329.675781 203.46875 330.210938 203.046875 330.722656 C 202.625 331.238281 202.179688 331.730469 201.710938 332.199219 C 201.238281 332.667969 200.746094 333.117188 200.234375 333.535156 C 199.71875 333.957031 199.1875 334.355469 198.632812 334.722656 C 198.082031 335.09375 197.511719 335.433594 196.925781 335.746094 C 196.339844 336.0625 195.738281 336.34375 195.125 336.601562 C 194.511719 336.855469 193.882812 337.078125 193.25 337.269531 C 192.613281 337.464844 191.96875 337.625 191.316406 337.753906 C 190.664062 337.882812 190.007812 337.980469 189.34375 338.046875 C 188.683594 338.113281 188.019531 338.144531 187.355469 338.144531 C 186.691406 338.144531 186.027344 338.113281 185.367188 338.046875 C 184.703125 337.980469 184.046875 337.882812 183.394531 337.753906 C 182.742188 337.625 182.097656 337.464844 181.464844 337.269531 C 180.828125 337.078125 180.203125 336.855469 179.585938 336.601562 C 178.972656 336.34375 178.371094 336.0625 177.785156 335.746094 C 177.199219 335.433594 176.628906 335.09375 176.078125 334.722656 C 175.523438 334.355469 174.992188 333.957031 174.476562 333.535156 C 173.964844 333.117188 173.472656 332.667969 173 332.199219 C 172.53125 331.730469 172.085938 331.238281 171.664062 330.722656 C 171.242188 330.210938 170.847656 329.675781 170.476562 329.121094 C 170.109375 328.570312 169.765625 328 169.453125 327.414062 C 169.140625 326.828125 168.855469 326.226562 168.601562 325.613281 C 168.347656 325 168.121094 324.375 167.929688 323.738281 C 167.738281 323.101562 167.574219 322.457031 167.445312 321.804688 C 167.316406 321.152344 167.21875 320.496094 167.152344 319.835938 C 167.089844 319.171875 167.054688 318.511719 167.054688 317.84375 C 167.054688 317.179688 167.089844 316.515625 167.152344 315.855469 C 167.21875 315.195312 167.316406 314.535156 167.445312 313.882812 C 167.574219 313.234375 167.738281 312.589844 167.929688 311.953125 C 168.121094 311.316406 168.347656 310.691406 168.601562 310.078125 C 168.855469 309.460938 169.140625 308.863281 169.453125 308.277344 C 169.765625 307.6875 170.109375 307.121094 170.476562 306.566406 C 170.847656 306.015625 171.242188 305.480469 171.664062 304.964844 C 172.085938 304.453125 172.53125 303.960938 173 303.492188 C 173.472656 303.019531 173.964844 302.574219 174.476562 302.152344 C 174.992188 301.730469 175.523438 301.335938 176.078125 300.964844 C 176.628906 300.597656 177.199219 300.253906 177.785156 299.941406 C 178.371094 299.628906 178.972656 299.34375 179.585938 299.089844 C 180.203125 298.835938 180.828125 298.613281 181.464844 298.417969 C 182.097656 298.226562 182.742188 298.066406 183.394531 297.933594 C 184.046875 297.804688 184.703125 297.707031 185.367188 297.644531 C 186.027344 297.578125 186.691406 297.546875 187.355469 297.546875 C 188.019531 297.546875 188.683594 297.578125 189.34375 297.644531 C 190.007812 297.707031 190.664062 297.804688 191.316406 297.933594 C 191.96875 298.066406 192.613281 298.226562 193.25 298.417969 C 193.882812 298.613281 194.511719 298.835938 195.125 299.089844 C 195.738281 299.34375 196.339844 299.628906 196.925781 299.941406 C 197.511719 300.253906 198.082031 300.597656 198.632812 300.964844 C 199.1875 301.335938 199.71875 301.730469 200.234375 302.152344 C 200.746094 302.574219 201.238281 303.019531 201.710938 303.492188 C 202.179688 303.960938 202.625 304.453125 203.046875 304.964844 C 203.46875 305.480469 203.863281 306.015625 204.234375 306.566406 C 204.605469 307.121094 204.945312 307.6875 205.257812 308.277344 C 205.570312 308.863281 205.855469 309.460938 206.109375 310.078125 C 206.363281 310.691406 206.589844 311.316406 206.78125 311.953125 C 206.972656 312.589844 207.136719 313.234375 207.265625 313.882812 C 207.394531 314.535156 207.492188 315.195312 207.558594 315.855469 C 207.625 316.515625 207.65625 317.179688 207.65625 317.84375 Z M 207.65625 317.84375 "/></g></svg>