<svg xmlns="http://www.w3.org/2000/svg" xmlns:xlink="http://www.w3.org/1999/xlink" width="500" zoomAndPan="magnify" viewBox="0 0 375 374.999991" height="500" preserveAspectRatio="xMidYMid meet" version="1.2"><defs><clipPath id="ffa51a0e6a"><path d="M 7 13.160156 L 359.957031 13.160156 L 359.957031 361.910156 L 7 361.910156 Z M 7 13.160156 "/></clipPath></defs><g id="64968077fb"><path style=" stroke:none;fill-rule:nonzero;fill:#ac0048;fill-opacity:1;" d="M 332.0625 211.257812 C 332.140625 211.179688 332.21875 211.027344 332.292969 210.949219 C 332.21875 211.027344 331.988281 211.257812 332.0625 211.257812 Z M 337.105469 203.695312 C 335.5 206.136719 333.898438 208.507812 332.371094 210.949219 C 332.445312 210.949219 332.523438 210.949219 332.445312 211.179688 C 332.21875 211.636719 331.988281 212.019531 331.605469 212.402344 C 331.757812 210.796875 331.988281 208.886719 331.910156 207.4375 C 331.835938 205.144531 331.222656 201.097656 333.285156 199.570312 C 336.570312 199.796875 337.640625 201.554688 337.871094 203.695312 Z M 337.105469 203.695312 "/><path style=" stroke:none;fill-rule:nonzero;fill:#ac0048;fill-opacity:1;" d="M 337.792969 203.695312 C 338.023438 205.757812 337.488281 208.199219 337.257812 210.261719 C 336.800781 214.464844 340.46875 218.972656 338.785156 222.636719 C 337.945312 224.546875 335.425781 226.152344 333.898438 227.222656 C 332.0625 228.445312 330.917969 230.125 329.847656 226.917969 C 329.46875 225.847656 330.15625 224.242188 330.078125 223.25 C 329.847656 221.261719 328.09375 219.507812 327.785156 217.597656 C 327.40625 214.695312 330 214.007812 331.53125 212.402344 C 331.835938 212.019531 332.140625 211.636719 332.371094 211.179688 C 332.445312 210.949219 332.371094 210.875 332.292969 210.949219 C 333.898438 208.507812 335.5 206.136719 337.03125 203.695312 Z M 337.792969 203.695312 "/><g clip-rule="nonzero" clip-path="url(#ffa51a0e6a)"><path style=" stroke:none;fill-rule:nonzero;fill:#ac0048;fill-opacity:1;" d="M 152.320312 249.605469 C 151.480469 250.980469 150.792969 252.199219 150.640625 252.582031 C 149.800781 254.261719 148.117188 255.5625 147.582031 257.472656 C 147.050781 259.6875 147.582031 262.4375 147.8125 264.574219 C 148.269531 268.929688 148.425781 272.214844 149.570312 276.265625 C 152.167969 276.265625 156.292969 276.417969 156.519531 279.855469 C 156.75 283.902344 152.167969 281.6875 150.945312 284.285156 C 150.027344 286.195312 153.542969 289.785156 154.382812 291.542969 C 155.605469 294.292969 155.832031 298.265625 157.667969 300.707031 C 159.652344 303.304688 161.714844 304.527344 163.242188 307.660156 C 165 311.328125 165.6875 313.542969 169.660156 314.917969 C 173.175781 316.140625 176.917969 317.132812 180.507812 318.355469 C 185.089844 319.882812 188.910156 321.714844 193.339844 323.394531 C 196.855469 324.769531 199.222656 327.292969 203.195312 327.140625 C 208.160156 326.910156 209.6875 326.605469 214.347656 328.894531 C 219.617188 331.570312 227.5625 335.234375 232.835938 331.1875 C 242.382812 323.855469 230.695312 314 227.257812 307.355469 C 222.0625 297.421875 216.335938 288.484375 207.777344 281.457031 C 203.578125 278.019531 199.453125 275.574219 194.640625 273.207031 C 188.757812 270.304688 184.328125 266.792969 179.363281 262.511719 C 174.929688 258.617188 171.1875 254.796875 165.382812 252.734375 C 161.410156 251.4375 156.675781 248.917969 152.320312 249.605469 Z M 33.535156 203.695312 C 33.535156 203.542969 33.457031 203.464844 33.382812 203.386719 C 33.382812 203.542969 33.457031 203.617188 33.535156 203.695312 Z M 317.703125 248.761719 C 317.703125 248.6875 317.625 248.535156 317.625 248.382812 C 320.988281 249.679688 325.570312 257.089844 320.988281 260.144531 C 319.460938 261.136719 318.46875 259.535156 317.246094 260.144531 C 315.183594 261.0625 316.328125 262.742188 315.488281 264.269531 C 314.570312 266.027344 309.605469 267.9375 313.425781 270.839844 C 317.855469 274.125 317.246094 266.484375 319.84375 265.722656 C 324.5 264.347656 321.21875 272.136719 321.21875 273.359375 C 321.21875 275.5 321.980469 274.734375 323.125 276.417969 C 324.121094 277.867188 324.347656 279.394531 324.960938 281.152344 C 325.800781 283.902344 327.632812 288.332031 325.34375 291.007812 C 323.203125 293.527344 319.230469 293.222656 316.9375 294.980469 C 313.425781 297.652344 317.320312 301.089844 315.5625 304.222656 C 314.648438 305.902344 312.585938 306.4375 311.667969 308.269531 C 310.828125 309.953125 310.75 313.464844 311.132812 315.144531 C 312.355469 320.339844 315.5625 323.625 315.792969 329.429688 C 315.945312 333.632812 317.855469 336.535156 319.230469 340.507812 C 321.371094 346.769531 324.5 340.890625 327.328125 344.171875 C 328.703125 345.777344 327.097656 347.765625 326.5625 349.367188 C 326.183594 350.742188 326.183594 354.792969 325.113281 355.707031 C 322.667969 357.695312 319.535156 353.417969 316.328125 355.25 C 313.121094 357.082031 311.4375 361.4375 306.703125 361.515625 C 301.738281 361.589844 299.980469 355.9375 294.785156 356.625 C 292.113281 357.007812 289.667969 357.695312 286.839844 356.855469 C 284.167969 356.089844 284.015625 355.175781 283.25 352.269531 C 282.714844 350.285156 282.714844 347.839844 280.960938 346.234375 C 279.203125 344.632812 276.222656 344.785156 274.464844 343.640625 C 272.480469 342.417969 271.792969 340.203125 269.273438 339.359375 C 266.828125 341.804688 267.898438 342.796875 264.613281 341.269531 C 261.632812 339.820312 258.808594 337.605469 255.597656 336.230469 C 253.996094 335.542969 253.460938 335.007812 251.625 334.929688 C 250.175781 334.855469 250.402344 336.230469 248.800781 335.464844 C 248.417969 335.3125 247.960938 334.777344 247.578125 334.089844 C 244.0625 338.671875 235.8125 343.332031 233.0625 343.714844 C 229.777344 344.171875 226.722656 342.417969 223.515625 342.109375 C 220.230469 341.730469 217.9375 342.339844 214.960938 340.8125 C 209 337.757812 203.652344 334.929688 197.390625 333.402344 C 194.640625 332.714844 191.964844 333.097656 189.214844 331.796875 C 186.695312 330.578125 184.710938 328.515625 182.113281 327.140625 C 181.117188 326.605469 179.667969 325.230469 178.523438 325.152344 C 177.070312 325.078125 176.613281 326.375 175.238281 326.527344 C 173.554688 326.757812 172.179688 325.457031 170.652344 325.535156 C 169.585938 325.609375 168.363281 326.527344 167.367188 326.605469 C 167.445312 329.277344 168.363281 334.546875 163.929688 333.707031 C 162.328125 333.402344 159.117188 329.582031 157.820312 328.132812 C 155.527344 325.535156 154.535156 322.9375 151.554688 320.953125 C 148.804688 319.117188 145.902344 318.203125 143.917969 315.605469 C 142.160156 313.234375 141.015625 310.257812 138.722656 308.347656 C 136.660156 306.667969 133.988281 306.132812 131.769531 304.984375 C 126.652344 302.234375 125.125 296.046875 120.238281 292.535156 C 116.417969 289.785156 112.367188 285.277344 108.550781 283.519531 C 108.015625 282.375 107.480469 281.152344 107.019531 279.929688 C 104.578125 278.707031 100.832031 274.429688 99.152344 272.980469 C 95.332031 269.464844 91.667969 266.179688 88.917969 261.75 C 84.484375 254.417969 83.796875 245.707031 76.3125 240.589844 C 73.332031 238.527344 72.035156 236.464844 69.359375 234.019531 C 66.609375 231.5 63.25 230.8125 59.964844 229.207031 C 57.445312 227.910156 53.394531 226.457031 51.410156 224.394531 C 48.660156 221.570312 48.507812 218.359375 45.144531 215.917969 C 39.722656 211.867188 36.285156 209.730469 33.078125 203.921875 C 33.078125 204 33.078125 204 33.078125 204.074219 C 32.464844 202.777344 31.929688 201.476562 31.394531 200.179688 C 29.867188 198.574219 28.417969 196.972656 26.964844 195.367188 C 27.117188 195.445312 27.269531 195.597656 27.347656 195.75 C 24.445312 192.539062 23.375 191.011719 19.632812 189.5625 C 17.492188 188.722656 16.117188 187.347656 13.980469 186.277344 C 12.070312 185.285156 8.480469 185.664062 7.410156 183.144531 C 5.957031 179.859375 11.074219 171.074219 14.4375 170.464844 C 20.929688 169.242188 19.019531 178.484375 21.542969 180.777344 C 22.457031 181.617188 24.445312 181.617188 25.515625 182.226562 C 26.890625 182.992188 27.269531 184.0625 28.492188 184.902344 C 30.707031 186.582031 34.757812 187.5 36.054688 184.214844 C 33.609375 182.992188 28.644531 180.472656 33 178.027344 C 35.367188 176.726562 40.640625 177.339844 43.234375 176.421875 C 44.6875 175.964844 45.527344 174.589844 47.515625 175.351562 C 49.117188 175.964844 49.652344 177.796875 51.179688 178.5625 C 54.234375 180.011719 56.375 176.726562 59.355469 176.5 C 60.042969 176.421875 60.804688 177.722656 61.339844 177.644531 C 62.5625 177.492188 62.257812 176.195312 63.171875 175.660156 C 64.703125 174.820312 66.078125 174.742188 66.765625 173.0625 C 67.453125 171.457031 66.382812 169.472656 66.917969 167.789062 C 67.453125 166.035156 68.75 165.347656 69.359375 163.664062 C 70.582031 160.304688 68.367188 154.957031 72.339844 152.742188 C 77.152344 150.070312 77.457031 158.472656 82.957031 155.570312 C 86.089844 153.886719 86.167969 152.207031 84.945312 149 C 84.027344 146.707031 83.570312 145.332031 83.644531 142.429688 C 83.644531 139.296875 82.195312 133.644531 83.796875 130.511719 C 83.417969 128.449219 82.957031 126.386719 82.421875 124.324219 C 82.421875 124.476562 82.421875 124.628906 82.5 124.785156 C 80.820312 122.1875 79.828125 114.394531 84.105469 113.097656 C 86.625 112.332031 89.453125 115.847656 92.125 115.617188 C 95.257812 115.3125 95.257812 112.636719 98.769531 112.941406 C 101.214844 113.097656 103.738281 114.929688 106.257812 114.625 C 107.632812 114.472656 108.015625 112.941406 109.847656 113.324219 C 111.375 113.628906 112.140625 115.3125 113.363281 116 C 120.925781 120.199219 116.339844 108.207031 117.792969 106.144531 C 119.015625 104.386719 120.847656 104.769531 122.375 104.003906 C 124.285156 103.011719 124.285156 102.324219 125.660156 100.492188 C 127.644531 97.894531 129.632812 96.441406 132.765625 95.832031 C 133.375 93.847656 134.75 91.097656 137.042969 91.019531 C 140.328125 90.867188 140.402344 94.992188 141.320312 97.359375 C 142.464844 100.261719 142.617188 99.804688 145.140625 101.253906 C 147.507812 102.628906 148.425781 104.464844 150.027344 106.144531 C 152.320312 102.097656 154.382812 106.984375 154.992188 109.199219 C 157.4375 109.046875 159.5 109.277344 161.488281 109.886719 C 161.945312 107.976562 162.480469 105.914062 162.863281 104.847656 C 163.089844 100.644531 164.695312 96.519531 169.277344 96.367188 C 172.5625 96.289062 172.945312 97.128906 175.3125 94.535156 C 176.382812 93.3125 176.535156 92.546875 178.0625 91.707031 C 179.285156 91.097656 180.8125 91.402344 181.882812 90.636719 C 185.703125 88.191406 188.300781 81.472656 190.363281 77.652344 C 193.492188 71.921875 197.773438 73.527344 203.117188 72.535156 C 207.550781 71.691406 205.945312 69.707031 204.953125 66.347656 C 204.648438 65.277344 204.113281 63.824219 204.417969 62.601562 C 204.875 60.234375 205.105469 61.074219 206.710938 59.777344 C 209.992188 57.179688 208.238281 57.179688 208.773438 53.28125 C 208.925781 52.136719 209.613281 50.6875 210.605469 49.84375 C 211.902344 48.699219 212.972656 49.539062 213.964844 49.003906 C 216.410156 47.554688 215.875 44.878906 216.714844 42.128906 C 217.9375 38.082031 220.078125 38.464844 223.363281 36.554688 C 226.339844 34.796875 227.640625 32.429688 231.230469 31.742188 C 234.363281 31.128906 237.035156 30.0625 239.023438 33.039062 C 240.703125 35.5625 240.550781 38.3125 244.214844 39.226562 C 248.496094 40.296875 250.097656 39.378906 253.996094 42.207031 C 256.4375 43.964844 259.953125 45.1875 263.085938 45.109375 C 264.308594 45.03125 265.148438 44.652344 266.140625 44.421875 C 267.589844 42.664062 269.121094 40.984375 270.648438 39.304688 C 271.105469 39.992188 273.167969 39.839844 274.464844 39.609375 C 277.0625 39.152344 276.300781 39 277.75 37.546875 C 280.273438 34.875 282.792969 34.644531 286.460938 36.019531 C 288.140625 34.71875 289.4375 32.199219 291.882812 32.503906 C 300.285156 34.566406 306.398438 32.429688 314.035156 28.761719 C 317.855469 26.929688 320.835938 25.78125 324.960938 24.636719 C 328.933594 23.566406 331.683594 22.421875 334.125 19.136719 C 334.8125 18.21875 334.96875 16.84375 336.035156 16.234375 C 337.640625 15.394531 337.71875 16.464844 339.246094 16.234375 C 341.382812 16.003906 342.375 15.777344 343.445312 13.40625 C 346.195312 13.5625 348.71875 15.394531 351.542969 15.851562 C 354.597656 16.234375 357.65625 13.867188 359.945312 16.3125 C 358.800781 20.664062 356.433594 24.941406 353.148438 27.84375 C 351.621094 25.78125 354.21875 21.277344 349.863281 22.5 C 347.648438 23.109375 345.585938 26.699219 344.898438 28.609375 C 344.132812 30.824219 344.058594 34.339844 346.5 35.5625 C 349.785156 37.164062 350.015625 33.574219 351.160156 37.851562 C 351.542969 39.226562 351.160156 40.90625 351.542969 42.28125 C 352 43.734375 353.300781 45.1875 353.835938 46.5625 C 355.363281 50.53125 354.90625 54.503906 355.746094 58.628906 C 356.585938 62.449219 358.722656 64.972656 359.03125 69.019531 C 359.335938 73.449219 358.496094 77.269531 356.125 81.089844 C 353.222656 85.671875 349.558594 89.566406 346.042969 93.691406 C 345.585938 94.226562 344.285156 95.601562 342.988281 97.054688 C 342.53125 98.125 342.070312 99.191406 341.613281 100.261719 C 340.773438 104.082031 339.625 109.8125 338.558594 114.394531 C 337.183594 120.429688 334.28125 126.769531 333.59375 132.882812 C 333.210938 136.394531 334.203125 139.375 334.738281 142.734375 C 335.273438 145.945312 334.738281 149.304688 334.585938 152.511719 C 334.433594 155.949219 333.210938 158.777344 332.523438 162.0625 C 331.910156 165.117188 333.132812 167.484375 333.515625 170.617188 C 333.746094 172.296875 333.285156 174.207031 333.59375 175.8125 C 333.898438 177.570312 334.738281 178.332031 335.195312 180.164062 C 336.035156 183.449219 334.585938 187.117188 335.65625 190.402344 C 336.265625 192.234375 338.863281 195.976562 334.8125 196.589844 C 331.835938 197.046875 330.613281 192.160156 327.9375 191.777344 C 323.8125 191.164062 326.5625 196.285156 327.558594 198.117188 C 329.3125 201.402344 328.703125 203.160156 327.097656 206.671875 C 325.34375 210.570312 323.660156 211.105469 319.839844 212.9375 C 318.542969 213.546875 316.480469 214.3125 315.640625 215.382812 C 313.730469 217.75 315.027344 217.367188 316.402344 218.972656 C 319.460938 222.410156 318.464844 222.792969 318.238281 227.449219 C 317.933594 232.417969 322.746094 229.054688 324.425781 232.722656 C 325.417969 235.011719 323.433594 239.136719 323.125 241.507812 C 322.820312 243.492188 323.125 246.089844 320.527344 246.167969 C 319.152344 246.167969 317.933594 244.332031 316.328125 244.332031 C 316.175781 244.332031 316.097656 244.332031 315.945312 244.332031 C 316.25 245.632812 316.558594 246.855469 316.863281 248.152344 C 316.9375 248.382812 316.9375 248.609375 317.015625 248.761719 C 317.625 248.535156 317.625 248.6875 317.703125 248.761719 Z M 131.542969 235.929688 C 133.605469 233.5625 137.117188 230.582031 131.390625 230.125 C 129.707031 229.972656 127.875 230.582031 126.042969 230.429688 C 124.972656 230.355469 124.207031 230.046875 123.292969 230.125 C 122.070312 226.6875 120.390625 221.875 119.015625 220.652344 C 116.800781 218.820312 114.277344 217.671875 111.527344 218.667969 C 109.082031 219.507812 107.785156 222.410156 105.1875 223.25 C 103.738281 223.785156 102.4375 223.25 100.910156 223.785156 C 99.078125 224.472656 98.160156 226.609375 96.097656 224.777344 C 96.554688 221.1875 92.660156 221.492188 91.515625 224.089844 C 90.367188 226.609375 93.652344 229.511719 95.410156 230.964844 C 97.550781 232.796875 100.144531 234.019531 102.4375 235.625 C 106.867188 238.679688 105.800781 235.242188 109.695312 233.714844 C 111.300781 233.105469 113.972656 233.792969 114.8125 235.242188 C 115.730469 236.695312 114.429688 237.917969 114.355469 239.136719 C 114.277344 240.820312 113.363281 239.980469 114.582031 241.734375 C 115.117188 242.5 117.488281 243.492188 118.402344 243.339844 C 120.238281 243.035156 120.082031 240.894531 121.457031 240.511719 C 122.832031 240.132812 123.828125 241.660156 125.050781 241.660156 C 129.175781 241.8125 129.554688 238.222656 131.542969 235.929688 Z M 131.542969 235.929688 "/></g></g></svg>