<svg xmlns="http://www.w3.org/2000/svg" xmlns:xlink="http://www.w3.org/1999/xlink" width="500" zoomAndPan="magnify" viewBox="0 0 375 374.999991" height="500" preserveAspectRatio="xMidYMid meet" version="1.2"><defs><clipPath id="85858ae1da"><path d="M 18.191406 67 L 314 67 L 314 361.496094 L 18.191406 361.496094 Z M 18.191406 67 "/></clipPath><clipPath id="4d0d8965e6"><path d="M 292 14.472656 L 309 14.472656 L 309 57 L 292 57 Z M 292 14.472656 "/></clipPath><clipPath id="4f103d1a62"><path d="M 323.703125 72.269531 L 366.484375 72.269531 L 366.484375 88.785156 L 323.703125 88.785156 Z M 323.703125 72.269531 "/></clipPath></defs><g id="49476b1230"><g clip-rule="nonzero" clip-path="url(#85858ae1da)"><path style=" stroke:none;fill-rule:nonzero;fill:#ac0048;fill-opacity:1;" d="M 272.273438 67.203125 L 59.894531 67.203125 C 36.859375 67.203125 18.191406 84.472656 18.191406 105.785156 L 18.191406 273.671875 C 18.191406 294.980469 36.859375 312.265625 59.894531 312.265625 L 96.503906 312.265625 C 101.785156 312.265625 105.644531 317.253906 104.316406 322.367188 L 104.289062 322.46875 C 104.269531 322.539062 104.25 322.621094 104.226562 322.691406 C 100.175781 338.121094 89.601562 351.695312 71.746094 358.300781 C 70.917969 358.605469 71.015625 359.804688 71.886719 359.960938 C 94.203125 363.996094 115.757812 360.128906 132.324219 347.800781 C 137.558594 343.917969 142.28125 339.171875 146.339844 333.613281 C 146.40625 333.519531 146.476562 333.425781 146.542969 333.335938 C 156.425781 319.953125 172.246094 312.265625 188.878906 312.265625 L 272.273438 312.265625 C 291.925781 312.265625 308.417969 299.667969 312.808594 282.746094 C 312.90625 282.320312 313.011719 281.902344 313.113281 281.46875 C 313.398438 280.195312 313.597656 278.886719 313.75 277.574219 C 313.78125 277.320312 313.804688 277.054688 313.824219 276.800781 C 313.945312 275.777344 313.976562 274.730469 313.976562 273.671875 L 313.976562 105.785156 C 313.976562 84.472656 295.300781 67.203125 272.273438 67.203125 "/></g><g clip-rule="nonzero" clip-path="url(#4d0d8965e6)"><path style=" stroke:none;fill-rule:nonzero;fill:#ac0048;fill-opacity:1;" d="M 300.558594 56.984375 C 296.28125 56.984375 292.8125 53.515625 292.8125 49.238281 L 292.8125 22.214844 C 292.8125 17.9375 296.28125 14.46875 300.558594 14.46875 C 304.835938 14.46875 308.304688 17.9375 308.304688 22.214844 L 308.304688 49.238281 C 308.304688 53.515625 304.835938 56.984375 300.558594 56.984375 "/></g><path style=" stroke:none;fill-rule:nonzero;fill:#ac0048;fill-opacity:1;" d="M 326.496094 54.460938 C 323.472656 51.433594 323.472656 46.53125 326.496094 43.503906 L 345.601562 24.398438 C 348.628906 21.375 353.53125 21.375 356.558594 24.398438 C 359.582031 27.421875 359.582031 32.328125 356.558594 35.351562 L 337.449219 54.460938 C 334.425781 57.484375 329.519531 57.484375 326.496094 54.460938 "/><g clip-rule="nonzero" clip-path="url(#4f103d1a62)"><path style=" stroke:none;fill-rule:nonzero;fill:#ac0048;fill-opacity:1;" d="M 323.972656 80.398438 C 323.972656 76.121094 327.4375 72.652344 331.71875 72.652344 L 358.742188 72.652344 C 363.015625 72.652344 366.484375 76.121094 366.484375 80.398438 C 366.484375 84.675781 363.015625 88.144531 358.742188 88.144531 L 331.71875 88.144531 C 327.4375 88.144531 323.972656 84.675781 323.972656 80.398438 "/></g><path style=" stroke:none;fill-rule:nonzero;fill:#ffffff;fill-opacity:1;" d="M 166.082031 236.503906 C 158.757812 236.503906 152.792969 242.464844 152.792969 249.792969 C 152.792969 257.121094 158.757812 263.082031 166.082031 263.082031 C 173.410156 263.082031 179.371094 257.121094 179.371094 249.792969 C 179.371094 242.464844 173.410156 236.503906 166.082031 236.503906 "/><path style=" stroke:none;fill-rule:nonzero;fill:#ffffff;fill-opacity:1;" d="M 176.453125 127.679688 C 173.765625 124.832031 170.128906 123.265625 166.210938 123.265625 L 165.953125 123.265625 C 162.039062 123.265625 158.402344 124.832031 155.714844 127.679688 C 153.027344 130.527344 151.671875 134.246094 151.898438 138.160156 L 156.347656 215.097656 C 156.644531 220.214844 160.886719 224.21875 166.011719 224.21875 L 166.15625 224.21875 C 171.277344 224.21875 175.523438 220.214844 175.820312 215.097656 L 180.269531 138.160156 C 180.496094 134.246094 179.140625 130.527344 176.453125 127.679688 "/></g></svg>