<?xml version="1.0" encoding="UTF-8"?><svg id="a" xmlns="http://www.w3.org/2000/svg" xmlns:xlink="http://www.w3.org/1999/xlink" viewBox="0 0 401.37 192.78"><defs><style>.f{fill:#ac0048;}.g{fill:#fff;}.h{fill:none;}.i{clip-path:url(#d);}.j{clip-path:url(#e);}.k{clip-path:url(#c);}</style><clipPath id="c"><rect class="h" width="401.37" height="192.78"/></clipPath><clipPath id="d"><path class="h" d="M12.97,0h375.16c3.44,0,6.74,1.37,9.17,3.8,2.43,2.43,3.8,5.73,3.8,9.17v166.84c0,3.44-1.36,6.73-3.8,9.17-2.43,2.43-5.73,3.8-9.17,3.8H12.97c-3.44,0-6.73-1.37-9.17-3.8-2.43-2.43-3.8-5.73-3.8-9.17V12.97c0-3.44,1.37-6.73,3.8-9.17C6.23,1.37,9.53,0,12.97,0Z"/></clipPath><clipPath id="e"><rect class="h" x="50.35" y="17.72" width="143.45" height="162.67"/></clipPath></defs><g id="b"><g class="k"><g class="i"><path class="f" d="M0,0h401.37v192.78H0V0Z"/></g></g><g class="j"><path class="g" d="M93.44,18.6c-6.74.18-8.25.36-12.01,1.49-4.49,1.36-9.03,3.85-12.98,7.16-6.21,5.18-11.34,13.96-12.72,21.7-.55,3.18-.55,11.34,0,14.46,1.29,7.14,4.96,14.05,10.23,19.36,4.03,4.05,7.74,6.56,12.85,8.77,2.56,1.07,4.27,1.47,7.85,1.78,3.22.29,19.55.6,40.25.78l15.56.16,1.78.55c6.38,2.05,10.3,4.27,14.26,8.12,9.69,9.43,12.09,23.37,6.07,35.38-2.95,5.89-8.18,10.85-14.7,13.94-2.65,1.24-4.11,1.67-7.18,2-4.18.45-18.66.67-47.15.67-27.02,0-35.18.16-37.91.67-3.14.6-5.88,2.87-7.58,6.32-.89,1.8-.96,2.05-1.05,4.2-.18,4,.65,6.29,3.31,9.14,1.96,2.11,3.49,2.91,6.2,3.24,4.87.63,39.9.84,69.27.44,15.61-.22,17.55-.31,21.68-1.13,2.89-.58,8.85-2.54,11.61-3.83,11.59-5.4,20.97-14.77,26.46-26.35,2.4-5.05,4.24-11.45,4.82-16.77.36-3.14.29-10.52-.09-13.25-.86-6.03-2.4-11.05-5.09-16.61-4.34-8.92-10.43-15.92-18.68-21.44-5.94-3.98-9.58-5.58-18.28-7.98l-3.98-1.11-29.09-.24-29.1-.24-2.03-1.05c-3.71-1.91-6.83-5.71-7.74-9.41-.38-1.55-.38-4.87,0-6.45.6-2.51,1.71-4.42,3.78-6.47,1.67-1.65,2.24-2.05,4.49-3.16l2.56-1.27,20.35-.02c11.19-.02,27.24-.11,35.69-.18l15.36-.14-6.16-5.09c-3.41-2.8-6.3-5.31-6.43-5.63-.36-.76-.31-1.42.16-2.11.2-.33,3.09-2.82,6.38-5.54,3.31-2.71,6.05-4.96,6.09-5,.18-.16-60.82-.03-67.14.13Z"/></g><path class="g" d="M160.19,23.4c-3.33,2.76-6.22,5.27-6.43,5.58-.6.91-.44,2.03.42,2.87.4.4,3.29,2.82,6.41,5.4l5.67,4.69h8.6l-3.4-2.82c-1.89-1.53-4.63-3.8-6.09-5.01-2.8-2.31-3.45-3.05-3.45-3.96s.65-1.65,3.45-3.96c1.47-1.2,4.2-3.47,6.09-5l3.4-2.82h-8.6l-6.07,5.02Z"/><path class="g" d="M174.05,23.58c-5.49,4.56-6.24,5.24-6.43,5.98-.13.51-.13,1.07,0,1.42.14.38,2.47,2.47,6.54,5.83l6.33,5.25,8.34.02c4.58,0,8.92.02,9.63.05l1.27.04.02,36.74c0,42.92.31,88.02.63,90.61.27,2.36,1.18,4.14,3.05,5.96,2.58,2.49,5.51,3.56,9.47,3.4,2.11-.09,2.52-.18,3.87-.84,2.03-1,4.56-3.45,5.9-5.69l1.04-1.76.16-64.2.16-64.18,7.05-.09,7.03-.07,2.05-1.29c4.22-2.67,6.29-6.16,6.29-10.61,0-4.84-2.71-8.83-7.49-11.07l-1.29-.6-28.69-.05-28.69-.04-6.23,5.18Z"/><path class="g" d="M256.86,19.14c-1.6.33-3.11,1.31-4.96,3.22-2.11,2.2-2.53,3.22-2.82,7.05-.14,2.01-.27,27.33-.35,71.83l-.14,68.74,1.09,2.09c2.34,4.56,5.96,6.87,10.74,6.87,3.49,0,5.6-.8,8.22-3.11,1.96-1.71,2.49-2.54,2.89-4.45.63-2.87.67-7.27,1.2-87.46l.05-6.83,11.11,19.95c6.09,10.99,16.53,29.67,23.13,41.54,6.63,11.85,13.59,24.38,15.45,27.8,1.87,3.43,3.8,6.81,4.27,7.49.93,1.4,2.11,2.45,4.07,3.58,1.92,1.11,3.41,1.49,5.88,1.49s4.33-.55,6.24-1.78c1.54-.98,3.74-3.43,4.72-5.2l.82-1.49.07-70.21c.07-77.58.2-71.11-1.42-74.54-2.47-5.18-7.94-7.68-13.63-6.23-3.05.78-5.45,2.54-7.12,5.22-.93,1.49-1.04,1.8-1.24,3.71-.29,2.87-.64,22.95-.64,37.79,0,6.8-.07,21.68-.16,33.07l-.14,20.68-13.34-23.93c-7.31-13.16-17.03-30.55-21.57-38.63-17.95-32-19.68-35.01-20.86-36.01-1.2-1.02-2.78-1.84-4.32-2.24-1.58-.4-5.42-.42-7.25-.02Z"/></g></svg>
