<?xml version="1.0" encoding="UTF-8"?><svg id="a" xmlns="http://www.w3.org/2000/svg" width="500" height="500" viewBox="0 0 500 500"><defs><style>.b{fill:#fff;}</style></defs><path class="b" d="M250,0C111.93,0,0,111.93,0,250s111.93,250,250,250,250-111.92,250-250S388.07,0,250,0ZM215.28,158.15l-4.06,3.37c-2.26,1.83-5.52,4.54-7.27,5.97-3.34,2.76-4.11,3.63-4.11,4.72s.77,1.96,4.11,4.72c1.75,1.43,5.01,4.14,7.27,5.96l4.06,3.37h-10.26l-6.76-5.6c-3.72-3.07-7.17-5.96-7.64-6.44-1.04-1-1.22-2.33-.51-3.42.24-.37,3.69-3.36,7.67-6.65l7.24-6h10.26ZM236.14,292.26c-.69,6.34-2.88,13.98-5.75,20-6.55,13.81-17.74,24.97-31.55,31.42-3.29,1.54-10.4,3.87-13.85,4.56-4.93.98-7.23,1.09-25.84,1.35-35.03.48-76.79.21-82.6-.53-3.23-.4-5.06-1.35-7.39-3.87-3.19-3.4-4.17-6.12-3.96-10.9.11-2.57.19-2.86,1.25-5.01,2.04-4.11,5.31-6.81,9.04-7.53,3.27-.61,12.99-.79,45.21-.79,33.96,0,51.23-.27,56.21-.8,3.66-.4,5.41-.9,8.56-2.39,7.77-3.68,14-9.59,17.53-16.62,7.19-14.32,4.32-30.94-7.24-42.19-4.72-4.58-9.38-7.23-16.99-9.68l-2.12-.66-18.57-.18c-24.68-.21-44.14-.59-47.99-.93-4.27-.37-6.31-.85-9.36-2.12-6.09-2.63-10.52-5.62-15.32-10.45-6.28-6.34-10.66-14.58-12.2-23.09-.66-3.72-.66-13.45,0-17.24,1.64-9.23,7.77-19.7,15.17-25.88,4.72-3.95,10.13-6.91,15.48-8.53,4.48-1.35,6.29-1.57,14.32-1.78,7.53-.19,80.26-.34,80.05-.16-.06.06-3.32,2.73-7.27,5.97-3.92,3.23-7.37,6.2-7.61,6.6-.55.82-.61,1.62-.18,2.52.16.37,3.6,3.37,7.66,6.71l7.34,6.07-18.32.15c-10.07.09-29.21.19-42.55.22l-24.26.02-3.05,1.51c-2.68,1.33-3.37,1.81-5.36,3.77-2.46,2.44-3.79,4.72-4.5,7.72-.46,1.88-.46,5.83,0,7.69,1.08,4.4,4.79,8.93,9.22,11.21l2.42,1.25,34.7.29,34.68.29,4.75,1.33c10.37,2.86,14.71,4.77,21.79,9.52,9.84,6.57,17.11,14.92,22.27,25.55,3.21,6.63,5.05,12.63,6.08,19.81.45,3.26.53,12.07.1,15.8ZM293.09,184.86l-2.43,1.53-8.38.08-8.4.11-.19,76.52-.19,76.55-1.24,2.09c-1.59,2.68-4.62,5.6-7.03,6.79-1.62.8-2.09.9-4.62,1-4.71.19-8.21-1.08-11.29-4.05-2.23-2.17-3.31-4.29-3.63-7.11-.37-3.1-.74-56.87-.74-108.04l-.03-43.81-1.51-.05c-.85-.02-6.02-.05-11.48-.05l-9.95-.03-7.55-6.26c-4.85-4-7.64-6.49-7.8-6.94-.16-.43-.16-1.09,0-1.7.21-.87,1.11-1.7,7.67-7.13l7.42-6.18,34.2.05,34.21.06,1.54.71c5.69,2.68,8.93,7.43,8.93,13.21,0,5.3-2.46,9.47-7.51,12.65ZM422.35,255.78l-.07,83.71-.99,1.77c-1.16,2.12-3.79,5.04-5.62,6.21-2.28,1.46-4.56,2.12-7.45,2.12s-4.71-.45-7-1.77c-2.33-1.36-3.74-2.6-4.85-4.28-.56-.82-2.86-4.85-5.09-8.93-2.23-4.09-10.52-19.01-18.43-33.14-7.87-14.16-20.31-36.44-27.57-49.53l-13.26-23.79-.05,8.14c-.64,95.61-.69,100.86-1.43,104.29-.48,2.28-1.12,3.26-3.45,5.3-3.13,2.75-5.65,3.71-9.81,3.71-5.7,0-10.02-2.76-12.81-8.19l-1.3-2.5.16-81.95c.11-53.06.26-83.26.43-85.64.34-4.56.84-5.79,3.37-8.41,2.19-2.28,4-3.44,5.91-3.84,2.17-.48,6.76-.45,8.64.02,1.83.48,3.71,1.46,5.14,2.68,1.41,1.2,3.48,4.77,24.87,42.93,5.41,9.62,17,30.35,25.72,46.05l15.91,28.53.16-24.66c.11-13.57.19-31.31.19-39.42,0-17.69.42-41.63.76-45.05.24-2.28.38-2.65,1.49-4.43,1.99-3.21,4.85-5.3,8.49-6.23,6.78-1.72,13.3,1.25,16.25,7.42,1.93,4.09,1.77-3.63,1.69,88.88Z"/></svg>