<svg width="48" height="48" viewBox="0 0 48 48" fill="none" xmlns="http://www.w3.org/2000/svg">
  <path fill-rule="evenodd" clip-rule="evenodd" d="M24 4C12.9543 4 4 12.9543 4 24C4 35.0457 12.9543 44 24 44C35.0457 44 44 35.0457 44 24C44 12.9543 35.0457 4 24 4ZM0 24C0 10.7452 10.7452 0 24 0C37.2548 0 48 10.7452 48 24C48 37.2548 37.2548 48 24 48C10.7452 48 0 37.2548 0 24Z" fill="#a20044"/>
  <path d="M24 12C17.3726 12 12 17.3726 12 24H24V12Z" fill="rgba(255,255,255,0.7)"/>
  <path d="M24 36C30.6274 36 36 30.6274 36 24H24V36Z" fill="rgba(255,255,255,0.7)"/>
</svg>
