<?xml version="1.0" encoding="UTF-8"?><svg id="a" xmlns="http://www.w3.org/2000/svg" width="14.8cm" height="14.8cm" viewBox="0 0 419.57 419.57"><defs><style>.b{fill:#fff;}</style></defs><path class="b" d="M209.78,0C93.92,0,0,93.92,0,209.78s93.92,209.78,209.78,209.78,209.78-93.92,209.78-209.78S325.64,0,209.78,0ZM180.61,133.02l-3.4,2.82c-1.88,1.53-4.61,3.78-6.07,4.98-2.79,2.31-3.44,3.04-3.44,3.94s.65,1.64,3.44,3.94c1.46,1.2,4.19,3.47,6.07,4.99l3.4,2.81h-8.58l-5.65-4.67c-3.1-2.57-5.99-4.98-6.39-5.39-.86-.84-1.02-1.95-.42-2.86.2-.31,3.08-2.81,6.4-5.56l6.05-5.02h8.58ZM197.69,245.08c-.58,5.29-2.41,11.65-4.8,16.67-5.46,11.52-14.79,20.83-26.3,26.2-2.74,1.28-8.67,3.23-11.55,3.8-4.11.81-6.03.91-21.55,1.13-29.2.39-64.02.17-68.86-.44-2.69-.34-4.22-1.13-6.17-3.23-2.65-2.83-3.47-5.1-3.29-9.09.08-2.14.15-2.38,1.03-4.18,1.7-3.42,4.43-5.67,7.54-6.28,2.72-.5,10.83-.66,37.69-.66,28.32,0,42.71-.22,46.87-.66,3.05-.34,4.51-.75,7.14-1.99,6.48-3.07,11.67-8,14.61-13.85,5.99-11.94,3.61-25.8-6.03-35.18-3.94-3.82-7.83-6.03-14.17-8.06l-1.76-.55-15.48-.16c-20.67-.17-36.96-.49-40.18-.77-3.57-.31-5.28-.71-7.83-1.78-5.11-2.19-8.81-4.7-12.83-8.74-5.26-5.3-8.92-12.21-10.21-19.33-.55-3.1-.55-11.25,0-14.42,1.38-7.73,6.5-16.49,12.7-21.67,3.95-3.3,8.48-5.79,12.96-7.14,3.75-1.13,5.26-1.31,11.98-1.49,6.3-.16,67.18-.29,67.01-.13-.05.04-2.78,2.28-6.08,4.99-3.29,2.71-6.17,5.19-6.37,5.53-.47.68-.51,1.35-.16,2.11.13.31,3.01,2.82,6.41,5.61l6.15,5.09-15.25.13-35.7-.84h-20.1l-2.68,1.33c-2.36,1.17-2.96,1.59-4.71,3.31-2.16,2.14-3.33,4.15-3.96,6.78-.39,1.64-.39,5.12,0,6.75.96,3.87,4.21,7.85,8.11,9.85l2.12,1.1,28.91.25h28.93l3.96,1.11c8.64,2.38,12.27,3.98,18.17,7.94,8.21,5.48,14.27,12.44,18.57,21.31,2.68,5.53,4.2,10.52,5.06,16.51.38,2.72.44,10.06.09,13.17ZM245.89,155.12l-2.11,1.33-6.92.07-6.69-.84v65.09l-.84,63.61-1.06,1.75c-1.36,2.23-3.94,4.67-5.98,5.66-1.38.66-1.79.75-3.94.84-4.01.15-7-.91-9.61-3.38-1.9-1.82-2.83-3.58-3.1-5.93-.32-2.58-.63-47.45-.63-90.15l-.03-36.54-1.29-.04c-.72-.03-5.12-.04-9.78-.04l-8.47-.03-6.43-5.22c-4.14-3.34-6.5-5.42-6.65-5.79-.13-.36-.13-.91,0-1.42.18-.73.95-1.42,6.53-5.96l6.32-5.15,29.51.04,28.57-.84,1.33.62c4.92,2.31,7.71,6.4,7.71,11.4,0,4.58-2.13,8.18-6.48,10.93ZM354.43,214.92l-.07,69.81-.82,1.49c-.97,1.77-3.17,4.21-4.7,5.19-1.91,1.22-3.81,1.78-6.23,1.78s-3.95-.38-5.86-1.49c-1.96-1.13-3.13-2.17-4.06-3.57-.46-.69-2.39-4.06-4.25-7.48-1.86-3.42-8.8-15.89-15.41-27.71-6.59-11.85-16.99-30.47-23.07-41.43l-11.08-19.89-.04,6.06c-.55,81.24-.59,85.71-1.22,88.62-.41,1.94-.95,2.77-2.93,4.5-2.66,2.34-4.8,3.16-8.34,3.16-4.84,0-8.52-2.35-10.88-6.96l-1.1-2.12.13-69.31c.08-44.45.22-69.75.35-71.75.29-3.82.71-4.84,2.83-7.04,1.84-1.9,3.35-2.88,4.95-3.22,1.82-.39,5.66-.37,7.23.03,1.54.4,3.11,1.23,4.31,2.24,1.18,1.01,2.91,4,20.84,35.97,4.53,8.06,14.24,25.43,21.55,38.58l13.33,23.91.13-20.33c.09-11.47.16-26.46.16-33.31,0-14.94.35-35.18.65-38.07.2-1.92.32-2.24,1.26-3.74,1.68-2.71,4.09-4.48,7.17-5.26,5.74-1.45,11.25,1.05,13.74,6.28,1.64,3.45,1.5-3.07,1.43,75.1Z"/></svg>