<?xml version="1.0" encoding="UTF-8"?><svg id="a" xmlns="http://www.w3.org/2000/svg" width="14.67cm" height="11.31cm" xmlns:xlink="http://www.w3.org/1999/xlink" viewBox="0 0 415.92 320.64"><defs><style>.v{clip-path:url(#t);}.w{clip-path:url(#i);}.x{clip-path:url(#k);}.y{clip-path:url(#q);}.z{fill:#e79c96;}.aa{clip-path:url(#m);}.ab{clip-path:url(#f);}.ac{clip-path:url(#j);}.ad{fill:none;}.ae{fill:#61103b;}.af{clip-path:url(#p);}.ag{clip-path:url(#h);}.ah{fill:#fef1f1;}.ai{clip-path:url(#o);}.aj{fill:#ad144b;}.ak{clip-path:url(#b);}.al{clip-path:url(#n);}.am{clip-path:url(#r);}.an{clip-path:url(#s);}.ao{clip-path:url(#g);}.ap{clip-path:url(#l);}.aq{clip-path:url(#d);}.ar{clip-path:url(#e);}.as{clip-path:url(#c);}.at{fill:#f2cbc1;}.au{clip-path:url(#u);}</style><clipPath id="b"><rect class="ad" x="27.81" y="26.39" width="57.64" height="58.31"/></clipPath><clipPath id="c"><path class="ad" d="M36.21,26.39h40.84c4.64,0,8.4,3.76,8.4,8.4v41.45c0,4.64-3.76,8.4-8.4,8.4h-40.84c-4.64,0-8.4-3.76-8.4-8.4v-41.45c0-4.64,3.76-8.4,8.4-8.4Z"/></clipPath><clipPath id="d"><rect class="ad" x="58.15" y="83.39" width="10.68" height="10.67"/></clipPath><clipPath id="e"><rect class="ad" x="58.04" y="83.39" width="10.79" height="10.82"/></clipPath><clipPath id="f"><rect class="ad" x="26.6" y="116.91" width="8.92" height="8.73"/></clipPath><clipPath id="g"><rect class="ad" x="26.6" y="116.9" width="8.92" height="8.96"/></clipPath><clipPath id="h"><rect class="ad" x="71.11" y="54.83" width="43.39" height="43.9"/></clipPath><clipPath id="i"><path class="ad" d="M77.95,54.83h29.7c1.82,0,3.56.72,4.84,2,1.28,1.28,2,3.03,2,4.84v30.16c0,1.81-.72,3.56-2,4.84-1.28,1.28-3.02,2-4.84,2h-29.7c-1.82,0-3.56-.72-4.84-2s-2-3.03-2-4.84v-30.16c0-1.81.72-3.56,2-4.84s3.02-2,4.84-2Z"/></clipPath><clipPath id="j"><rect class="ad" x="93.89" y="97.8" width="8.1" height="7.89"/></clipPath><clipPath id="k"><rect class="ad" x="93.89" y="97.74" width="8.1" height="8.21"/></clipPath><clipPath id="l"><rect class="ad" x="65.59" width="39.44" height="39.87"/></clipPath><clipPath id="m"><rect class="ad" x="65.59" width="39.44" height="39.86" rx="5.91" ry="5.91"/></clipPath><clipPath id="n"><rect class="ad" x="86.33" y="39.02" width="7.28" height="7.43"/></clipPath><clipPath id="o"><rect class="ad" x="86.28" y="39.01" width="7.38" height="7.46"/></clipPath><clipPath id="p"><rect class="ad" x="5.23" y="16.47" width="37.25" height="37.69"/></clipPath><clipPath id="q"><path class="ad" d="M10.52,16.47h26.67c1.4,0,2.75.56,3.74,1.55.99.99,1.55,2.34,1.55,3.74v27.07c0,1.4-.56,2.75-1.55,3.74s-2.34,1.55-3.74,1.55H10.52c-1.4,0-2.75-.56-3.74-1.55-.99-.99-1.55-2.34-1.55-3.74v-27.07c0-1.4.56-2.75,1.55-3.74.99-.99,2.34-1.55,3.74-1.55Z"/></clipPath><clipPath id="r"><rect class="ad" x="24.91" y="53.34" width="6.84" height="7.06"/></clipPath><clipPath id="s"><rect class="ad" x="24.78" y="53.31" width="6.97" height="7.09"/></clipPath><clipPath id="t"><rect class="ad" x="1.35" y="69.38" width="48.06" height="48.62"/></clipPath><clipPath id="u"><path class="ad" d="M9.75,69.38h31.26c4.64,0,8.4,3.76,8.4,8.4v31.77c0,4.64-3.76,8.4-8.4,8.4H9.75c-4.64,0-8.4-3.76-8.4-8.4v-31.77c0-4.64,3.76-8.4,8.4-8.4Z"/></clipPath></defs><path class="aj" d="M13.97,138.27c1.45,0,2.81.28,4.07.82,1.26.54,2.36,1.27,3.3,2.21.95.94,1.7,2.04,2.25,3.32.54,1.26.82,2.61.82,4.05s-.28,2.79-.82,4.05c-.55,1.25-1.29,2.35-2.23,3.28s-2.04,1.68-3.32,2.21c-1.26.54-2.63.8-4.09.8h-6.22v5.73c0,.53-.19.97-.57,1.34-.37.36-.82.54-1.36.54s-1.01-.18-1.37-.55c-.36-.37-.54-.81-.54-1.32v-24.6c0-.26.05-.49.15-.72.11-.23.25-.44.42-.62.17-.18.36-.31.59-.4.23-.1.49-.15.75-.15h8.16ZM7.74,142.09v13.1h6.28c.94,0,1.8-.18,2.6-.55.8-.37,1.5-.85,2.08-1.46.59-.6,1.05-1.29,1.37-2.08.34-.79.5-1.6.5-2.43s-.17-1.63-.5-2.41c-.33-.79-.78-1.5-1.37-2.11-.59-.61-1.29-1.11-2.08-1.49-.8-.38-1.65-.57-2.58-.57h-6.3Z"/><path class="aj" d="M42.68,138.04c1.33,0,2.61.18,3.84.54,1.23.35,2.38.83,3.45,1.46,1.07.62,2.04,1.37,2.92,2.25.88.88,1.63,1.86,2.26,2.93.64,1.06,1.13,2.21,1.47,3.45.34,1.23.52,2.51.52,3.84,0,2-.38,3.87-1.14,5.61-.76,1.74-1.8,3.27-3.12,4.57-1.31,1.31-2.84,2.34-4.59,3.1-1.74.75-3.61,1.12-5.61,1.12s-3.89-.37-5.63-1.12c-1.74-.76-3.27-1.79-4.57-3.1-1.3-1.31-2.32-2.83-3.07-4.57-.74-1.74-1.11-3.61-1.11-5.61,0-1.33.17-2.61.5-3.84.34-1.24.81-2.39,1.44-3.45.62-1.07,1.37-2.05,2.25-2.93.87-.88,1.83-1.63,2.9-2.25,1.06-.62,2.2-1.11,3.43-1.46,1.24-.36,2.52-.54,3.85-.54ZM42.68,141.88c-1.47,0-2.84.28-4.12.84-1.29.55-2.41,1.31-3.37,2.28-.95.97-1.7,2.1-2.26,3.38-.55,1.29-.82,2.66-.82,4.12s.27,2.86.82,4.14c.56,1.29,1.31,2.41,2.26,3.37.96.95,2.08,1.7,3.37,2.26,1.28.55,2.66.82,4.12.82s2.84-.27,4.14-.82c1.29-.56,2.42-1.31,3.38-2.26.96-.96,1.71-2.08,2.26-3.37.56-1.28.84-2.66.84-4.14s-.28-2.84-.84-4.12c-.55-1.28-1.3-2.41-2.26-3.38-.96-.97-2.09-1.73-3.38-2.28-1.3-.56-2.68-.84-4.14-.84Z"/><path class="aj" d="M73.28,138.27c1.45,0,2.81.26,4.07.77,1.26.52,2.36,1.23,3.3,2.14.95.9,1.7,1.98,2.25,3.22.54,1.23.82,2.56.82,4,0,1.08-.16,2.11-.47,3.08-.31.96-.75,1.85-1.31,2.66-.56.8-1.23,1.52-2.01,2.13-.78.6-1.64,1.1-2.58,1.49l5.38,5.58c.2.19.34.41.44.65.09.25.13.49.12.74,0,.25-.06.49-.17.72-.1.23-.25.44-.44.62-.37.36-.78.54-1.24.54-.23,0-.45-.04-.67-.13-.23-.09-.43-.23-.62-.42l-7.25-7.52h-5.85v6.22c0,.53-.19.97-.57,1.34-.37.36-.82.54-1.36.54s-.96-.18-1.34-.54c-.38-.37-.57-.81-.57-1.34v-24.6c0-.26.05-.49.15-.72.11-.23.25-.44.42-.62.17-.18.36-.31.59-.4.23-.1.49-.15.75-.15h8.16ZM67.04,142.09v12.65h6.25c.95,0,1.83-.17,2.63-.5.8-.34,1.5-.81,2.08-1.39.59-.58,1.05-1.25,1.37-2.01.34-.77.5-1.58.5-2.43s-.17-1.65-.5-2.41c-.33-.77-.78-1.44-1.37-2.01-.59-.58-1.29-1.04-2.09-1.37-.8-.34-1.65-.52-2.56-.52h-6.3Z"/><path class="aj" d="M112.91,138.04c1.33,0,2.61.18,3.84.54,1.23.35,2.38.83,3.45,1.46,1.07.62,2.04,1.37,2.92,2.25.88.88,1.63,1.86,2.26,2.93.64,1.06,1.13,2.21,1.47,3.45.34,1.23.52,2.51.52,3.84,0,1.83-.33,3.56-.97,5.19-.64,1.62-1.52,3.07-2.65,4.34-1.12,1.27-2.44,2.32-3.97,3.15-1.53.83-3.18,1.36-4.94,1.59v3.55c0,.26-.05.49-.15.72-.1.23-.24.44-.42.6-.17.18-.37.31-.6.4-.23.1-.46.15-.72.15-.27,0-.52-.05-.75-.15-.23-.09-.43-.23-.6-.4-.18-.17-.33-.37-.44-.6-.1-.23-.15-.46-.15-.72v-3.55c-1.77-.23-3.41-.76-4.94-1.59-1.52-.83-2.84-1.88-3.95-3.15-1.12-1.27-1.99-2.72-2.63-4.34-.63-1.63-.94-3.36-.94-5.19,0-1.33.17-2.61.5-3.84.34-1.24.81-2.39,1.44-3.45.62-1.07,1.37-2.05,2.25-2.93.87-.88,1.83-1.63,2.9-2.25,1.06-.62,2.2-1.11,3.43-1.46,1.24-.36,2.52-.54,3.85-.54ZM112.91,141.88c-1.47,0-2.84.28-4.12.84-1.29.55-2.41,1.31-3.37,2.28-.95.97-1.7,2.1-2.26,3.38-.55,1.29-.82,2.66-.82,4.12,0,1.32.22,2.56.65,3.74.44,1.16,1.04,2.21,1.81,3.13.78.92,1.7,1.69,2.75,2.31,1.06.62,2.21,1.03,3.45,1.26v-2.93c0-.26.05-.49.15-.72.11-.23.26-.44.44-.62.18-.18.38-.31.6-.4.23-.1.49-.15.75-.15s.49.05.72.15c.23.09.44.23.6.4.18.18.32.39.42.62.1.23.15.46.15.72v2.93c1.24-.22,2.39-.65,3.45-1.27,1.06-.62,1.98-1.4,2.75-2.33.78-.93,1.39-1.97,1.83-3.13.44-1.17.67-2.4.67-3.7,0-1.46-.28-2.84-.84-4.12-.55-1.28-1.3-2.41-2.26-3.38-.96-.97-2.09-1.73-3.38-2.28-1.3-.56-2.68-.84-4.14-.84Z"/><path class="aj" d="M136.17,154.41c0,1.21.24,2.35.74,3.42.49,1.06,1.14,1.99,1.96,2.76.81.77,1.76,1.38,2.85,1.83,1.09.45,2.24.67,3.43.67s2.32-.22,3.37-.67c1.06-.44,1.98-1.06,2.75-1.86.78-.79,1.39-1.71,1.84-2.76.46-1.06.69-2.2.69-3.42v-14.22c0-.54.18-.98.55-1.34.37-.36.82-.54,1.36-.54s.97.18,1.34.54c.38.36.57.8.57,1.34v14.26c0,1.71-.33,3.33-.99,4.86-.65,1.52-1.54,2.84-2.66,3.97-1.13,1.13-2.45,2.02-3.95,2.68-1.51.66-3.13.99-4.86.99s-3.38-.33-4.93-.99c-1.55-.66-2.92-1.55-4.09-2.68-1.16-1.13-2.09-2.45-2.76-3.97-.67-1.53-1.01-3.15-1.01-4.86v-14.19c0-.54.18-1.01.55-1.37s.81-.55,1.34-.55.99.18,1.36.55.55.83.55,1.37v14.19Z"/><path class="aj" d="M166.03,166.64c-.52-.04-.94-.24-1.27-.6-.34-.37-.5-.81-.5-1.32v-24.55c0-.54.19-1,.57-1.36.38-.36.83-.54,1.36-.54h16.15c.52,0,.96.18,1.32.55.37.37.55.82.55,1.34s-.18,1-.55,1.37c-.36.37-.8.55-1.32.55h-14.24v8.09h10.97c.27,0,.52.05.75.15s.44.24.62.42c.18.17.31.38.4.62.1.23.15.48.15.74,0,.54-.18.99-.55,1.36-.37.36-.83.54-1.37.54h-10.97v8.8h14.24c.26,0,.49.06.72.17.23.1.44.24.6.42.18.17.31.37.4.6.1.23.15.47.15.74,0,.55-.18,1.01-.55,1.37-.36.37-.8.54-1.32.54h-16.3ZM175.04,129.23c.21-.21.43-.36.65-.44.23-.09.47-.13.72-.13.54,0,1.01.18,1.37.55.2.19.34.4.44.64.1.23.15.48.15.72s-.05.49-.15.72c-.09.23-.23.43-.44.62l-3.22,3.27c-.39.39-.85.59-1.39.59-.5,0-.95-.19-1.32-.57-.19-.19-.34-.4-.44-.64-.1-.24-.15-.49-.15-.72s.05-.49.15-.72c.1-.24.24-.46.44-.65l3.18-3.23Z"/><path class="aj" d="M5.73,252.44c-1.64-.15-3.01-.79-4.1-1.91-1.08-1.13-1.63-2.55-1.63-4.27v-60.82c0-.88.16-1.7.49-2.46.32-.76.76-1.41,1.31-1.96.56-.56,1.21-1,1.98-1.32.77-.32,1.59-.49,2.46-.49h40.06c.87,0,1.68.16,2.43.49.75.33,1.38.77,1.91,1.32.54.55.96,1.2,1.29,1.96.32.76.49,1.58.49,2.46s-.16,1.64-.49,2.41c-.33.76-.75,1.42-1.29,1.98-.53.55-1.16.98-1.91,1.31-.75.33-1.56.49-2.43.49H12.42v17.06h26.49c.88,0,1.69.16,2.43.49.75.33,1.39.77,1.94,1.34.56.57,1,1.24,1.32,2.01.32.76.49,1.57.49,2.45s-.16,1.63-.49,2.38c-.33.74-.77,1.39-1.32,1.94-.55.56-1.2.99-1.94,1.29-.74.3-1.55.45-2.43.45H12.42v19h33.88c.87,0,1.68.16,2.43.49.75.33,1.38.77,1.91,1.34.54.57.96,1.24,1.29,2.01.32.76.49,1.58.49,2.46,0,1.79-.58,3.26-1.74,4.41-1.16,1.14-2.62,1.71-4.37,1.71H5.73Z"/><path class="aj" d="M75.19,240.02l31.77.05c.87,0,1.68.16,2.41.49.75.33,1.39.78,1.94,1.36.56.57,1,1.23,1.32,1.98.32.74.49,1.55.49,2.43,0,1.79-.59,3.26-1.78,4.41-1.17,1.14-2.64,1.71-4.39,1.71h-38.65c-.21,0-.41-.04-.6-.12-.16,0-.31-.04-.45-.12-1.31-.34-2.38-1.04-3.22-2.11s-1.26-2.33-1.26-3.77v-61c0-.87.16-1.68.49-2.43.32-.75.76-1.38,1.31-1.91.56-.54,1.21-.96,1.98-1.29.77-.32,1.57-.49,2.41-.49.88,0,1.69.16,2.43.49.75.33,1.41.75,1.98,1.29.57.53,1.01,1.16,1.34,1.91.32.75.49,1.56.49,2.43v54.7Z"/><path class="aj" d="M127.84,252.44c-1.64-.15-3.01-.79-4.1-1.91-1.08-1.13-1.63-2.55-1.63-4.27v-60.82c0-.88.16-1.7.49-2.46.32-.76.76-1.41,1.31-1.96.56-.56,1.21-1,1.98-1.32.77-.32,1.59-.49,2.46-.49h40.06c.87,0,1.68.16,2.43.49.75.33,1.38.77,1.91,1.32.54.55.96,1.2,1.29,1.96.32.76.49,1.58.49,2.46s-.16,1.64-.49,2.41c-.33.76-.75,1.42-1.29,1.98-.53.55-1.16.98-1.91,1.31-.75.33-1.56.49-2.43.49h-33.88v17.06h26.49c.88,0,1.69.16,2.43.49.75.33,1.39.77,1.94,1.34.56.57,1,1.24,1.32,2.01.32.76.49,1.57.49,2.45s-.16,1.63-.49,2.38c-.33.74-.77,1.39-1.32,1.94-.55.56-1.2.99-1.94,1.29-.74.3-1.55.45-2.43.45h-26.49v19h33.88c.87,0,1.68.16,2.43.49.75.33,1.38.77,1.91,1.34.54.57.96,1.24,1.29,2.01.32.76.49,1.58.49,2.46,0,1.79-.58,3.26-1.74,4.41-1.16,1.14-2.62,1.71-4.37,1.71h-40.56Z"/><path class="aj" d="M244.27,189.72c.61.57,1.07,1.24,1.37,2.01.3.76.45,1.52.45,2.3s-.15,1.52-.45,2.28c-.3.76-.76,1.42-1.37,1.99-1.26,1.26-2.77,1.89-4.52,1.89-1.6,0-3.01-.57-4.24-1.71-2.51-2.48-5.29-4.33-8.33-5.55-3.03-1.23-6.16-1.84-9.4-1.84s-6.47.65-9.45,1.93c-2.97,1.27-5.59,3.03-7.84,5.26-2.25,2.22-4.03,4.84-5.34,7.86-1.32,3.02-1.98,6.28-1.98,9.78,0,3.32.62,6.47,1.86,9.45,1.24,2.97,2.95,5.59,5.14,7.86,2.2,2.27,4.78,4.08,7.76,5.45,2.98,1.35,6.21,2.03,9.68,2.03,3.12,0,6.04-.4,8.75-1.21,2.71-.8,5.29-2.23,7.72-4.29v-8.06h-8.65c-.84,0-1.64-.17-2.4-.52-.76-.34-1.41-.8-1.94-1.37s-.97-1.23-1.29-1.99c-.33-.77-.49-1.57-.49-2.41s.16-1.63.49-2.36c.32-.75.75-1.39,1.29-1.94.54-.56,1.18-1,1.94-1.32.76-.32,1.56-.49,2.4-.49h14.83c.87,0,1.68.16,2.45.49.77.33,1.44.75,2.01,1.29.58.53,1.03,1.16,1.36,1.91.32.74.49,1.55.49,2.43v17.11c0,1-.2,1.86-.59,2.58-.38.73-.87,1.42-1.47,2.06-4.23,3.78-8.62,6.48-13.17,8.13-4.54,1.63-9.23,2.43-14.07,2.4-3.28,0-6.46-.45-9.53-1.34-3.06-.9-5.95-2.15-8.66-3.75-2.71-1.6-5.19-3.52-7.44-5.76-2.25-2.25-4.17-4.76-5.78-7.51-1.6-2.75-2.85-5.7-3.75-8.86-.9-3.17-1.34-6.47-1.34-9.9,0-5.08.94-9.88,2.83-14.39,1.88-4.52,4.49-8.48,7.81-11.88,3.33-3.39,7.23-6.08,11.71-8.06,4.48-1.99,9.32-2.98,14.51-2.98s9.99.93,14.44,2.78c4.44,1.84,8.52,4.6,12.21,8.26Z"/><path class="aj" d="M271.79,246.32c0,.84-.16,1.64-.49,2.4-.33.76-.77,1.41-1.34,1.94s-1.23.97-1.98,1.29c-.74.33-1.55.49-2.43.49s-1.64-.16-2.41-.49c-.76-.32-1.42-.75-1.98-1.29-.55-.54-.98-1.18-1.31-1.94-.33-.76-.49-1.56-.49-2.4v-61c0-.87.16-1.68.49-2.43.32-.75.76-1.39,1.31-1.94.56-.56,1.21-.99,1.98-1.29.77-.3,1.57-.45,2.41-.45.88,0,1.69.15,2.43.45.75.3,1.41.73,1.98,1.29.57.55,1.01,1.2,1.34,1.94.32.75.49,1.56.49,2.43v61Z"/><path class="aj" d="M285.59,185.43c0-.88.16-1.7.49-2.46.32-.76.76-1.41,1.31-1.96.56-.56,1.21-1,1.98-1.32.77-.32,1.57-.49,2.41-.49h20.99c3.77,0,7.32.68,10.64,2.03,3.33,1.35,6.24,3.23,8.73,5.61,2.5,2.38,4.47,5.2,5.9,8.46,1.43,3.26,2.14,6.78,2.14,10.56,0,2.56-.35,5.01-1.04,7.36-.68,2.35-1.65,4.5-2.92,6.47-1.25,1.97-2.75,3.74-4.49,5.33-1.73,1.57-3.67,2.92-5.8,4.02l10.59,12.77c.65.6,1.12,1.3,1.42,2.08.3.78.44,1.57.42,2.38-.01.8-.18,1.59-.49,2.35-.3.76-.75,1.43-1.36,2.01-.62.6-1.27,1.05-1.98,1.34-.7.29-1.42.44-2.14.44-1.57,0-2.94-.59-4.12-1.78l-15.92-18.48h-14.36v14.19c0,.84-.16,1.64-.49,2.4-.33.76-.77,1.41-1.34,1.94s-1.23.97-1.98,1.29c-.74.33-1.55.49-2.43.49s-1.64-.16-2.41-.49c-.76-.32-1.42-.75-1.98-1.29-.55-.54-.98-1.18-1.31-1.94-.33-.76-.49-1.56-.49-2.4v-60.89ZM298,191.62v28.03h14.88c2.07,0,4-.36,5.81-1.09,1.81-.72,3.38-1.71,4.71-2.95,1.34-1.24,2.4-2.7,3.18-4.37.78-1.68,1.17-3.47,1.17-5.38s-.39-3.78-1.17-5.51c-.78-1.74-1.84-3.26-3.18-4.56-1.33-1.29-2.9-2.31-4.71-3.05-1.81-.75-3.73-1.12-5.75-1.12h-14.95Z"/><path class="aj" d="M2.48,302.39c0-2.52.47-4.9,1.42-7.12.96-2.23,2.27-4.17,3.92-5.81,1.66-1.65,3.6-2.95,5.81-3.9,2.22-.96,4.58-1.44,7.09-1.44s4.88.48,7.07,1.42c2.19.94,4.1,2.23,5.75,3.87,1.65,1.64,2.95,3.56,3.9,5.76.96,2.19,1.45,4.55,1.47,7.07v16.13c0,.52-.16.94-.47,1.27-.3.33-.7.49-1.21.49s-.88-.16-1.17-.49c-.29-.34-.44-.76-.44-1.27l-.03-5.73c-.82,1.17-1.77,2.25-2.85,3.23-1.08.97-2.26,1.81-3.52,2.51-1.26.7-2.61,1.26-4.05,1.66-1.44.39-2.93.59-4.46.59-2.5,0-4.87-.48-7.09-1.44-2.21-.96-4.15-2.27-5.81-3.92-1.65-1.65-2.96-3.59-3.92-5.8-.95-2.22-1.42-4.58-1.42-7.09ZM5.81,302.39c0,2.01.39,3.92,1.16,5.73.78,1.81,1.83,3.4,3.17,4.78,1.34,1.37,2.92,2.44,4.72,3.23,1.82.78,3.77,1.17,5.86,1.17s4.07-.39,5.88-1.17c1.81-.79,3.38-1.87,4.72-3.23,1.34-1.37,2.39-2.97,3.15-4.78.77-1.81,1.16-3.72,1.16-5.73s-.39-4.01-1.16-5.83c-.76-1.82-1.81-3.41-3.15-4.76-1.34-1.35-2.92-2.42-4.72-3.2-1.81-.78-3.77-1.17-5.88-1.17s-4.02.39-5.85,1.17c-1.82.78-3.4,1.85-4.74,3.2-1.33,1.35-2.39,2.94-3.17,4.76-.77,1.82-1.16,3.77-1.16,5.83Z"/><path class="aj" d="M79.5,295.47c-1.59-.44-3.22-.96-4.89-1.59-1.67-.62-3.18-1.42-4.56-2.38-1.37-.97-2.5-2.14-3.38-3.52-.88-1.38-1.32-3.03-1.32-4.94s.44-3.7,1.31-5.21c.87-1.52,1.99-2.79,3.37-3.82,1.37-1.04,2.92-1.83,4.62-2.38,1.71-.54,3.41-.82,5.09-.82,1.47,0,2.9.15,4.27.45,1.38.3,2.67.75,3.85,1.34,1.18.58,2.25,1.32,3.2,2.21.96.9,1.77,1.92,2.43,3.07.21.34.26.67.13.99-.11.31-.27.57-.47.77-.31.26-.65.39-1.01.39-.43,0-.8-.14-1.11-.42-1.53-2.07-3.25-3.5-5.14-4.31-1.9-.8-3.95-1.21-6.13-1.21-1.2,0-2.45.18-3.75.54-1.3.36-2.49.9-3.57,1.64-1.08.74-1.98,1.67-2.68,2.8-.7,1.12-1.07,2.43-1.09,3.94,0,1.53.41,2.81,1.22,3.85.81,1.03,1.82,1.89,3.02,2.6,1.21.7,2.48,1.26,3.84,1.69,1.35.44,2.56.8,3.62,1.11,1.96.66,3.86,1.37,5.68,2.14,1.83.76,3.46,1.67,4.88,2.73,1.43,1.06,2.57,2.32,3.42,3.77.86,1.45,1.29,3.2,1.29,5.24,0,2.24-.44,4.25-1.32,6.03-.87,1.79-2.04,3.31-3.52,4.56-1.47,1.25-3.15,2.22-5.06,2.9-1.91.67-3.89,1.01-5.93,1.01-1.76,0-3.46-.23-5.13-.7-1.65-.48-3.18-1.13-4.57-1.96-1.39-.83-2.61-1.8-3.65-2.92-1.04-1.13-1.83-2.34-2.36-3.64-.28-.59-.33-1.07-.13-1.44.19-.37.46-.64.82-.82.31-.12.57-.18.77-.18.54,0,1.03.34,1.49,1.02.51,1.1,1.21,2.09,2.08,3,.88.9,1.89,1.68,3.03,2.31,1.15.64,2.39,1.13,3.72,1.47,1.33.35,2.69.52,4.09.52,1.48,0,2.97-.23,4.44-.7,1.48-.47,2.81-1.16,3.99-2.08,1.17-.93,2.12-2.08,2.85-3.47.72-1.38,1.09-3,1.09-4.84,0-1.57-.38-2.92-1.12-4.04-.74-1.13-1.7-2.09-2.9-2.9-1.2-.8-2.56-1.5-4.1-2.09-1.54-.6-3.11-1.17-4.69-1.71Z"/><path class="aj" d="M106.66,320.13c-.49-.05-.87-.24-1.14-.57-.27-.34-.4-.73-.4-1.19v-45.54c0-.51.17-.91.52-1.21.34-.3.75-.45,1.21-.45h29.91c.46,0,.84.16,1.16.47.32.3.49.7.49,1.19,0,.46-.16.85-.49,1.19-.31.33-.7.49-1.16.49h-28.33v18.97h21.36c.49-.02.89.14,1.19.49.31.34.47.74.47,1.21s-.16.84-.47,1.14c-.3.3-.7.45-1.19.45h-21.36v20.04h28.33c.46,0,.84.16,1.16.49.32.31.49.7.49,1.17s-.16.89-.49,1.22c-.31.33-.7.47-1.16.45h-30.09Z"/><path class="aj" d="M162.68,274.51v43.95c0,.46-.16.85-.49,1.19-.31.33-.71.49-1.19.49s-.89-.16-1.19-.49c-.3-.34-.45-.73-.45-1.19v-43.95h-15.62c-.46,0-.85-.16-1.19-.49-.33-.34-.49-.73-.49-1.19s.16-.86.49-1.17c.34-.32.73-.49,1.19-.49h34.53c.51,0,.92.17,1.22.5.31.34.47.73.47,1.19,0,.48-.16.88-.47,1.19s-.71.45-1.22.45h-15.6Z"/><path class="aj" d="M186.42,272.83c0-.49.15-.89.47-1.19.32-.31.71-.47,1.17-.47h14.12c2.39,0,4.64.43,6.75,1.29,2.12.85,3.96,2.03,5.53,3.54,1.57,1.51,2.82,3.29,3.74,5.34.91,2.04,1.37,4.27,1.37,6.67,0,1.86-.28,3.59-.84,5.19-.56,1.61-1.35,3.06-2.36,4.34-1.01,1.29-2.2,2.4-3.59,3.35-1.39.94-2.91,1.68-4.57,2.21l10.64,14.12c.38.38.54.82.49,1.32-.05.49-.26.88-.64,1.16-.31.23-.65.34-1.01.34-.46,0-.85-.16-1.17-.49l-11.9-15.68c-.44.06-.87.1-1.29.12-.41.03-.84.03-1.27.03h-12.35v14.46c0,.46-.16.85-.49,1.17-.33.31-.72.47-1.17.47s-.85-.15-1.17-.47c-.31-.32-.47-.71-.47-1.17v-45.66ZM189.73,274.51v26.24h12.38c2.07,0,3.96-.32,5.7-.97,1.73-.66,3.22-1.56,4.47-2.7,1.25-1.15,2.23-2.5,2.93-4.05.7-1.56,1.06-3.23,1.06-5.01s-.35-3.52-1.04-5.14c-.7-1.62-1.66-3.05-2.9-4.31-1.23-1.25-2.71-2.24-4.42-2.97-1.72-.72-3.6-1.09-5.65-1.09h-12.53Z"/><path class="aj" d="M259.51,307.85h-26.72l-4.83,11.29c-.13.33-.33.57-.62.74-.28.17-.58.25-.9.25-.23,0-.46-.04-.69-.12-.44-.2-.73-.51-.89-.92-.16-.42-.13-.85.08-1.29l19.65-45.62c.32-.67.84-1.01,1.56-1.01s1.21.34,1.49,1.01l19.7,45.66c.18.44.2.86.07,1.27-.13.4-.39.7-.79.9-.21.1-.46.15-.74.15-.72,0-1.24-.33-1.56-.99l-4.83-11.33ZM234.11,304.53h24.03l-11.98-28.08-12.05,28.08Z"/><path class="aj" d="M313.2,318.49c0,.44-.13.8-.4,1.11s-.59.48-.97.54h-.42c-.28,0-.53-.1-.74-.3l-.27-.23-32.6-42.07v40.97c0,.46-.16.85-.49,1.17-.33.31-.72.47-1.17.47s-.85-.15-1.17-.47c-.31-.32-.47-.71-.47-1.17v-45.62c0-.46.15-.85.47-1.19.32-.34.71-.5,1.17-.5.51,0,.98.23,1.39.69l32.35,41.69v-40.68c0-.46.15-.85.47-1.19.32-.34.72-.5,1.21-.5.51,0,.91.17,1.21.5.29.34.44.73.44,1.19v45.62Z"/><path class="aj" d="M328.28,318.49c0,.46-.16.85-.49,1.17-.33.31-.72.47-1.17.47s-.85-.15-1.17-.47c-.31-.32-.47-.71-.47-1.17v-45.66c0-.49.15-.89.47-1.19.32-.31.71-.47,1.17-.47s.85.16,1.17.47c.32.3.49.7.49,1.19v45.66Z"/><path class="aj" d="M379.51,278.21c.34.36.5.75.5,1.19s-.15.82-.45,1.16c-.34.33-.73.49-1.19.49s-.85-.16-1.19-.49c-2.17-2.14-4.57-3.76-7.2-4.84-2.64-1.08-5.34-1.63-8.13-1.63-2.98,0-5.79.57-8.41,1.71-2.63,1.13-4.91,2.68-6.85,4.64-1.94,1.97-3.46,4.26-4.59,6.89-1.12,2.63-1.68,5.43-1.68,8.41s.54,5.63,1.63,8.24c1.08,2.61,2.58,4.91,4.51,6.89,1.92,1.97,4.19,3.53,6.82,4.69,2.63,1.16,5.48,1.74,8.54,1.74,2.8.03,5.5-.47,8.09-1.47,2.6-1.01,5-2.59,7.2-4.76.32-.34.73-.5,1.22-.5.4,0,.77.14,1.11.42.32.34.49.75.49,1.22s-.15.85-.45,1.16c-2.5,2.5-5.27,4.34-8.31,5.51-3.03,1.17-6.16,1.76-9.4,1.76-2.29,0-4.5-.3-6.62-.9-2.11-.6-4.09-1.43-5.93-2.5-1.83-1.07-3.5-2.37-5.01-3.89-1.5-1.52-2.78-3.2-3.85-5.04-1.07-1.85-1.91-3.84-2.5-5.95-.58-2.12-.87-4.33-.87-6.62s.28-4.34.84-6.42c.57-2.08,1.37-4.03,2.4-5.86,1.04-1.83,2.3-3.52,3.77-5.08,1.47-1.56,3.13-2.9,4.98-4.02,1.85-1.13,3.86-2,6.03-2.61,2.17-.62,4.46-.94,6.89-.94,3.22,0,6.34.63,9.38,1.88,3.05,1.24,5.8,3.08,8.24,5.53Z"/><path class="aj" d="M386.79,285.33c.02-2.01.41-3.89,1.17-5.65.77-1.76,1.8-3.3,3.1-4.61,1.31-1.32,2.84-2.35,4.59-3.1,1.76-.76,3.64-1.14,5.63-1.14s3.95.39,5.73,1.16c1.78.76,3.33,1.81,4.64,3.13,1.32,1.32,2.35,2.87,3.12,4.66.77,1.79,1.16,3.7,1.16,5.73s-.39,3.9-1.16,5.65c-.76,1.74-1.8,3.26-3.12,4.56-1.31,1.29-2.86,2.3-4.64,3.03-1.78.74-3.69,1.11-5.73,1.11h-1.76v7c0,.52-.16.93-.49,1.26s-.7.47-1.16.47c-.48,0-.88-.15-1.21-.47-.33-.32-.49-.74-.49-1.26v-8.61c0-.48.17-.88.5-1.21.34-.34.73-.5,1.19-.5h3.49c1.57,0,3.05-.28,4.42-.85,1.38-.58,2.58-1.37,3.6-2.36,1.01-.99,1.81-2.16,2.38-3.5.58-1.34.87-2.77.87-4.31s-.3-3.09-.89-4.47c-.58-1.39-1.39-2.6-2.41-3.62-1.02-1.03-2.21-1.83-3.57-2.4-1.37-.58-2.83-.87-4.41-.87s-2.97.28-4.32.85c-1.35.56-2.55,1.35-3.59,2.36-1.03,1.02-1.84,2.22-2.45,3.6-.59,1.37-.89,2.89-.89,4.54,0,.49-.16.9-.47,1.24-.3.33-.68.49-1.14.49-.52,0-.93-.16-1.26-.49-.31-.34-.47-.75-.47-1.24v-.18ZM395.7,318.41c0-.64.21-1.16.62-1.57.42-.42.93-.64,1.52-.64.64,0,1.16.21,1.57.64.42.41.64.94.64,1.57,0,.57-.21,1.07-.64,1.51-.41.42-.94.64-1.57.64-.59,0-1.1-.21-1.52-.64-.41-.44-.62-.94-.62-1.51Z"/><g class="ak"><g class="as"><path class="ae" d="M27.81,26.39h57.64v58.31H27.81V26.39Z"/></g></g><g class="aq"><path class="ae" d="M58.35,83.65h10.25v10.25l-10.25-10.25Z"/></g><g class="ar"><path class="ae" d="M68.84,93.91v-10.25c0-.17-.1-.27-.24-.27h-10.25c-.1,0-.2.07-.24.17-.07.07-.03.2.03.27l10.25,10.25c.07.07.17.1.27.07.1-.07.17-.13.17-.24ZM68.33,83.89v9.38l-9.38-9.38h9.38Z"/></g><g class="ab"><path class="aj" d="M26.81,117.12h8.51v8.51l-8.51-8.51Z"/></g><g class="ao"><path class="aj" d="M35.51,125.63v-8.51c0-.14-.08-.22-.19-.22h-8.51c-.08,0-.17.06-.2.14-.06.06-.03.17.03.22l8.51,8.51c.06.06.14.08.22.06.08-.06.14-.11.14-.19ZM35.1,117.32v7.78l-7.78-7.78h7.78Z"/></g><path class="ah" d="M70.1,73.68c-.36.62-1.05,1.46-2.06,2.53-1.02,1.07-2.42,2.02-4.22,2.85-1.8.83-4.05,1.25-6.75,1.25-2.91,0-5.6-.68-8.07-2.03-2.47-1.35-4.45-3.2-5.93-5.54-1.48-2.34-2.23-4.99-2.23-7.95,0-2.34.49-4.28,1.48-5.82.99-1.53,2.08-2.74,3.28-3.62,1.19-.88,2.13-1.53,2.8-1.95.99-.52,1.82-1.11,2.5-1.76.68-.65,1.28-1.31,1.8-1.99.31-.37.61-.76.89-1.17s.48-.99.58-1.72c.63-1.25,1.47-2.09,2.54-2.54,1.07-.44,2.2-.45,3.39-.03,1.41.57,2.28,1.39,2.62,2.45.34,1.07.4,2.12.19,3.16-.21,1.04-.47,1.95-.77,2.73-.31.78-.81,1.51-1.48,2.19-.94,1.25-2.04,2.22-3.31,2.92-1.28.7-2.28,1.24-3.01,1.6-2.29,1.25-3.43,2.93-3.43,5.07,0,1.5.55,2.86,1.64,4.06,1.09,1.2,2.55,1.8,4.37,1.8,2.24,0,3.96-.94,5.16-2.81.88-1.25,2.03-1.9,3.43-1.95,1.4-.05,2.62.34,3.66,1.17,1.15.89,1.78,2.02,1.92,3.4.13,1.38-.2,2.61-.98,3.7ZM64.25,34.35c.05,1.46-.4,2.72-1.37,3.78-.96,1.06-2.15,1.62-3.55,1.68-1.45.11-2.71-.32-3.78-1.29-1.07-.96-1.63-2.17-1.68-3.62-.1-1.46.34-2.72,1.33-3.79.99-1.07,2.18-1.65,3.58-1.75,1.46-.05,2.71.4,3.75,1.37,1.04.96,1.61,2.17,1.71,3.62Z"/><g class="ag"><g class="w"><path class="at" d="M71.11,54.83h43.39v43.9h-43.39v-43.9Z"/></g></g><g class="ac"><path class="at" d="M94.1,97.94h7.72v7.72l-7.72-7.72Z"/></g><g class="x"><path class="at" d="M101.99,105.66v-7.72c0-.13-.07-.2-.18-.2h-7.72c-.08,0-.15.05-.18.13-.05.05-.02.15.03.2l7.72,7.72c.05.05.13.07.2.05.08-.05.13-.1.13-.18ZM101.61,98.12v7.06l-7.06-7.06h7.06Z"/></g><g class="ap"><g class="aa"><path class="aj" d="M65.59,0h39.44v39.91h-39.44V0Z"/></g></g><g class="al"><path class="aj" d="M86.54,39.17h7.01v7.01l-7.01-7.01Z"/></g><g class="ai"><path class="aj" d="M93.66,46.2v-7.01c0-.12-.07-.18-.16-.18h-7.01c-.07,0-.14.05-.16.11-.05.05-.02.14.02.19l7.01,7.01s.12.07.18.05c.07-.05.12-.09.12-.16ZM93.32,39.35v6.42l-6.41-6.42h6.41Z"/></g><g class="af"><g class="y"><path class="z" d="M5.23,16.47h37.25v37.69H5.23V16.47Z"/></g></g><g class="am"><path class="z" d="M24.97,53.48h6.63v6.63l-6.63-6.63Z"/></g><g class="an"><path class="z" d="M31.75,60.11v-6.63c0-.11-.06-.17-.15-.17h-6.63c-.06,0-.13.04-.15.11-.04.04-.02.13.02.17l6.63,6.63s.11.07.17.04c.06-.04.11-.09.11-.15ZM31.42,53.63v6.06l-6.06-6.06h6.06Z"/></g><path class="ah" d="M30.84,45.82c-.2.35-.58.82-1.15,1.42-.57.59-1.35,1.12-2.35,1.59-1,.46-2.26.7-3.77.7-1.63,0-3.13-.38-4.51-1.13-1.38-.75-2.48-1.79-3.3-3.09-.83-1.3-1.24-2.78-1.24-4.43,0-1.31.28-2.39.83-3.25.55-.85,1.16-1.53,1.83-2.02.66-.49,1.19-.85,1.57-1.09.55-.29,1.01-.62,1.39-.98.37-.36.71-.73,1-1.11.18-.2.34-.42.5-.65.16-.23.27-.55.33-.96.35-.69.82-1.17,1.42-1.42.6-.25,1.22-.25,1.89-.01.78.32,1.27.78,1.46,1.37.19.59.23,1.18.11,1.76-.12.58-.26,1.09-.43,1.52-.17.44-.45.85-.83,1.22-.52.7-1.13,1.24-1.84,1.63-.71.39-1.28.69-1.69.89-1.27.7-1.91,1.64-1.91,2.83,0,.84.31,1.59.91,2.26.61.67,1.42,1,2.43,1,1.25,0,2.21-.52,2.88-1.57.49-.7,1.13-1.06,1.92-1.09.78-.03,1.46.19,2.04.65.63.49.99,1.13,1.06,1.89.07.77-.11,1.46-.55,2.07ZM27.57,23.89c.03.81-.22,1.52-.76,2.11-.54.59-1.2.91-1.98.94-.81.06-1.51-.18-2.1-.72-.6-.54-.91-1.21-.94-2.02-.06-.81.19-1.52.74-2.11.55-.6,1.22-.92,2-.97.81-.03,1.51.22,2.09.76.58.54.9,1.21.95,2.02Z"/><path class="ah" d="M92.57,30.61c-.21.35-.59.83-1.17,1.43-.58.61-1.37,1.14-2.39,1.61-1.02.47-2.29.71-3.83.71-1.65,0-3.18-.39-4.58-1.15-1.4-.76-2.52-1.81-3.36-3.14-.84-1.32-1.26-2.82-1.26-4.5,0-1.33.28-2.43.84-3.29.56-.87,1.17-1.56,1.85-2.05.68-.5,1.21-.87,1.59-1.1.56-.29,1.04-.63,1.42-.99.38-.37.72-.75,1.01-1.12.18-.21.35-.43.51-.66.16-.24.27-.56.33-.97.35-.71.83-1.19,1.43-1.44.61-.25,1.25-.26,1.92-.02.79.33,1.29.79,1.48,1.39.19.61.23,1.2.12,1.79-.12.59-.27,1.1-.45,1.54-.18.44-.46.85-.84,1.24-.53.71-1.16,1.26-1.88,1.66-.72.4-1.29.7-1.7.91-1.3.71-1.95,1.66-1.95,2.87,0,.85.31,1.62.93,2.3s1.45,1.02,2.47,1.02c1.27,0,2.24-.53,2.92-1.59.5-.71,1.15-1.07,1.95-1.1.79-.03,1.48.19,2.08.66.65.5,1.01,1.14,1.09,1.92.07.78-.11,1.48-.56,2.1ZM89.25,8.34c.03.83-.23,1.54-.77,2.14-.55.61-1.22.92-2.01.95-.83.06-1.54-.19-2.15-.73-.61-.54-.92-1.23-.95-2.05-.06-.83.19-1.54.76-2.15.56-.6,1.24-.93,2.03-.99.82-.03,1.53.22,2.12.76.59.55.91,1.23.97,2.06Z"/><path class="ah" d="M102.47,89.68c-.25.43-.72,1.01-1.42,1.74-.7.73-1.66,1.38-2.88,1.95-1.23.57-2.77.86-4.62.86-1.99,0-3.84-.46-5.53-1.39-1.69-.93-3.05-2.19-4.06-3.8-1.01-1.6-1.52-3.41-1.52-5.44,0-1.6.34-2.93,1.02-3.98.68-1.05,1.42-1.88,2.24-2.49.82-.6,1.46-1.05,1.92-1.33.68-.36,1.25-.76,1.71-1.21.46-.45.87-.9,1.23-1.36.21-.25.42-.52.61-.8.2-.28.33-.67.4-1.17.43-.86,1.01-1.43,1.74-1.74.73-.3,1.5-.31,2.32-.02.96.39,1.55.95,1.79,1.68.23.73.28,1.45.14,2.17-.14.71-.32,1.34-.54,1.87-.21.53-.55,1.04-1.01,1.5-.64.85-1.4,1.52-2.28,2-.87.48-1.56.84-2.05,1.09-1.57.86-2.35,2.02-2.35,3.48,0,1.03.37,1.96,1.12,2.77.75.82,1.74,1.23,2.98,1.23,1.53,0,2.71-.64,3.53-1.92.6-.86,1.39-1.31,2.35-1.34.96-.03,1.8.24,2.51.8.78.6,1.22,1.38,1.31,2.32.09.94-.13,1.79-.67,2.53ZM98.46,62.76c.04,1-.27,1.86-.93,2.59-.66.73-1.47,1.11-2.43,1.15-.99.07-1.86-.23-2.59-.89-.73-.66-1.11-1.49-1.14-2.48-.07-.99.23-1.86.91-2.59.68-.73,1.5-1.13,2.45-1.21,1-.03,1.86.28,2.57.94.71.66,1.1,1.49,1.17,2.48Z"/><g class="v"><g class="au"><path class="aj" d="M1.35,69.38h48.06v48.62H1.35v-48.62Z"/></g></g><path class="ah" d="M33.28,106.55c-.27.46-.77,1.08-1.51,1.86-.74.78-1.77,1.47-3.08,2.08-1.31.61-2.95.92-4.93.92-2.13,0-4.1-.49-5.9-1.48-1.81-.99-3.26-2.34-4.34-4.05-1.08-1.71-1.62-3.65-1.62-5.82,0-1.71.36-3.13,1.08-4.25.72-1.12,1.52-2.01,2.39-2.66.87-.65,1.56-1.12,2.05-1.42.72-.38,1.33-.81,1.83-1.29.49-.48.93-.96,1.31-1.46.23-.27.45-.55.66-.86.21-.3.35-.72.43-1.25.46-.91,1.08-1.53,1.86-1.86.78-.32,1.6-.33,2.48-.02,1.02.42,1.66,1.01,1.91,1.79.25.78.3,1.55.15,2.31-.15.76-.35,1.43-.57,1.99-.23.57-.59,1.11-1.08,1.6-.69.91-1.5,1.62-2.43,2.14-.93.51-1.66.9-2.19,1.16-1.67.92-2.51,2.15-2.51,3.71,0,1.1.4,2.09,1.2,2.96.8.88,1.86,1.32,3.19,1.32,1.64,0,2.89-.68,3.77-2.05.65-.92,1.48-1.4,2.51-1.43,1.02-.03,1.92.25,2.68.86.84.64,1.3,1.47,1.4,2.48.1,1.01-.14,1.91-.71,2.71ZM29.01,77.8c.04,1.07-.29,1.99-1,2.77-.7.78-1.57,1.19-2.6,1.23-1.06.07-1.98-.24-2.77-.95-.78-.7-1.19-1.59-1.22-2.65-.08-1.06.25-1.99.97-2.77.72-.78,1.6-1.21,2.62-1.29,1.07-.03,1.98.3,2.74,1,.76.7,1.18,1.59,1.25,2.65Z"/></svg>