<?xml version="1.0" encoding="UTF-8"?><svg id="a" xmlns="http://www.w3.org/2000/svg" width="1074.08" height="1057.8" xmlns:xlink="http://www.w3.org/1999/xlink" viewBox="0 0 1074.08 1057.8"><defs><style>.au{clip-path:url(#an);}.av{stroke-miterlimit:8.84;stroke-width:8px;}.av,.aw,.ax,.ay,.az,.ba,.bb,.bc,.bd,.be{fill:none;}.av,.aw,.ax,.ay,.az,.bc,.bd,.be{stroke:#fff;}.bf{clip-path:url(#t);}.bg{clip-path:url(#i);}.bh{clip-path:url(#af);}.bi{clip-path:url(#x);}.aw{stroke-miterlimit:8.78;stroke-width:7.94px;}.bj{clip-path:url(#k);}.bk{clip-path:url(#q);}.bl{clip-path:url(#ar);}.ax{stroke-miterlimit:8.84;stroke-width:8px;}.bm{clip-path:url(#m);}.ay{stroke-miterlimit:8.84;stroke-width:8px;}.bn{clip-path:url(#f);}.bo{clip-path:url(#j);}.bp{clip-path:url(#aa);}.bq{clip-path:url(#ai);}.br{fill:#fff;}.az{stroke-miterlimit:8.83;stroke-width:7.98px;}.bs{clip-path:url(#ac);}.bt{clip-path:url(#ad);}.bu{clip-path:url(#al);}.ba{stroke:#ffd7e8;stroke-miterlimit:8.84;stroke-width:25.98px;}.bv{clip-path:url(#am);}.bw{clip-path:url(#aq);}.bx{clip-path:url(#p);}.by{clip-path:url(#h);}.bz{clip-path:url(#ak);}.ca{clip-path:url(#ag);}.cb{clip-path:url(#o);}.cc{clip-path:url(#v);}.cd{clip-path:url(#n);}.ce{clip-path:url(#r);}.bc{stroke-miterlimit:8.83;stroke-width:7.99px;}.cf{clip-path:url(#s);}.cg{clip-path:url(#at);}.ch{clip-path:url(#g);}.ci{clip-path:url(#z);}.bd{stroke-miterlimit:8.84;stroke-width:8px;}.cj{clip-path:url(#ao);}.ck{clip-path:url(#ap);}.cl{clip-path:url(#l);}.cm{clip-path:url(#d);}.cn{clip-path:url(#ae);}.co{clip-path:url(#e);}.cp{fill:#d40059;}.cq{clip-path:url(#aj);}.cr{clip-path:url(#w);}.cs{clip-path:url(#ab);}.ct{clip-path:url(#ah);}.cu{clip-path:url(#y);}.cv{clip-path:url(#as);}.cw{clip-path:url(#c);}.cx{clip-path:url(#u);}.be{stroke-width:3.62px;}</style><clipPath id="c"><rect class="bb" x="12.98" y="12.99" width="1049.06" height="1032.57"/></clipPath><clipPath id="d"><path class="bb" d="M758.79,17.24l298.8,298.79c2.71,2.72,4.24,6.4,4.24,10.24v406.01c0,3.84-1.53,7.53-4.24,10.24l-298.8,298.8c-2.72,2.72-6.4,4.24-10.24,4.24h-422.29c-3.84,0-7.53-1.53-10.24-4.24L17.22,742.52c-2.71-2.71-4.24-6.4-4.24-10.24v-406.01c0-3.84,1.53-7.53,4.24-10.24L316.02,17.24c2.72-2.72,6.4-4.24,10.24-4.24h422.29c3.84,0,7.53,1.53,10.24,4.24Z"/></clipPath><clipPath id="e"><rect class="bb" x="12.99" y="12.99" width="1048.09" height="1031.94"/></clipPath><clipPath id="f"><path class="bb" d="M758.27,17.23l298.58,298.58c2.72,2.71,4.24,6.4,4.24,10.23v405.71c0,3.84-1.52,7.52-4.24,10.24l-298.58,298.58c-2.71,2.71-6.4,4.24-10.23,4.24h-421.99c-3.84,0-7.52-1.53-10.23-4.24L17.23,742c-2.72-2.72-4.24-6.4-4.24-10.24v-405.71c0-3.84,1.52-7.52,4.24-10.23L315.81,17.23c2.71-2.71,6.4-4.24,10.23-4.24h421.99c3.84,0,7.52,1.53,10.23,4.24Z"/></clipPath><clipPath id="g"><rect class="bb" x="138.04" y="690.27" width="461.33" height="154.67"/></clipPath><clipPath id="h"><rect class="bb" x="296.12" y="536.64" width="145.94" height="462.14" transform="translate(-406.93 1119) rotate(-88.68)"/></clipPath><clipPath id="i"><rect class="bb" x="294.83" y="537.9" width="149" height="462.69" transform="translate(-408.23 1120.74) rotate(-88.68)"/></clipPath><clipPath id="j"><path class="bb" d="M212.63,691.11l315.46,7.28c40.24.93,72.11,34.3,71.19,74.54-.93,40.24-34.31,72.11-74.55,71.19l-315.46-7.28c-40.24-.93-72.11-34.3-71.19-74.54.93-40.24,34.31-72.11,74.55-71.19Z"/></clipPath><clipPath id="k"><rect class="bb" x="454.04" y="808.93" width="405.33" height="172"/></clipPath><clipPath id="l"><rect class="bb" x="453.76" y="829.3" width="406.86" height="130.46" transform="translate(-123.67 105.64) rotate(-8.4)"/></clipPath><clipPath id="m"><rect class="bb" x="454" y="829.06" width="409.73" height="133.36" transform="translate(-123.83 105.91) rotate(-8.4)"/></clipPath><clipPath id="n"><path class="bb" d="M511.4,850.12l272.51-40.26c35.87-5.3,69.22,19.3,74.48,54.94s-19.55,68.83-55.42,74.12l-272.51,40.26c-35.87,5.3-69.22-19.3-74.48-54.94-5.27-35.64,19.55-68.82,55.42-74.12Z"/></clipPath><clipPath id="o"><rect class="bb" x="155.38" y="459.6" width="457.33" height="236"/></clipPath><clipPath id="p"><rect class="bb" x="149.74" y="502.26" width="468.78" height="150.36" transform="translate(-139.71 122.92) rotate(-15.42)"/></clipPath><clipPath id="q"><rect class="bb" x="150.06" y="501.86" width="471.48" height="153.13" transform="translate(-139.92 123.41) rotate(-15.42)"/></clipPath><clipPath id="r"><path class="bb" d="M210.39,547.38l306.99-84.68c39.88-11,81.12,12.41,92.12,52.29,11,39.88-12.41,81.12-52.29,92.12l-306.99,84.68c-39.88,11-81.12-12.41-92.12-52.29-11-39.88,12.41-81.12,52.29-92.12Z"/></clipPath><clipPath id="s"><rect class="bb" x="124.71" y="290.27" width="461.33" height="174.67"/></clipPath><clipPath id="t"><rect class="bb" x="282.38" y="146.56" width="145.94" height="462.15" transform="translate(-52.56 697.76) rotate(-84.87)"/></clipPath><clipPath id="u"><rect class="bb" x="280.98" y="147.83" width="149" height="462.69" transform="translate(-53.98 699.31) rotate(-84.87)"/></clipPath><clipPath id="v"><path class="bb" d="M204.32,290.8l314.28,28.23c40.09,3.6,69.67,39.02,66.07,79.11-3.6,40.09-39.02,69.67-79.11,66.07l-314.28-28.23c-40.09-3.6-69.67-39.02-66.07-79.11,3.6-40.09,39.02-69.67,79.11-66.07Z"/></clipPath><clipPath id="w"><rect class="bb" x="544.71" y="584.93" width="418.67" height="256"/></clipPath><clipPath id="x"><rect class="bb" x="680.73" y="494.02" width="145.94" height="437.82" transform="translate(-187.64 1149.07) rotate(-68.27)"/></clipPath><clipPath id="y"><rect class="bb" x="679.25" y="495.03" width="149" height="439.15" transform="translate(-189.17 1150.16) rotate(-68.27)"/></clipPath><clipPath id="z"><path class="bb" d="M645.06,591.08l271.17,108.09c37.39,14.91,55.62,57.3,40.71,94.69s-57.3,55.62-94.69,40.71l-271.17-108.09c-37.39-14.91-55.62-57.3-40.71-94.69s57.3-55.62,94.69-40.72Z"/></clipPath><clipPath id="aa"><rect class="bb" x="576.71" y="359.6" width="426.67" height="340"/></clipPath><clipPath id="ab"><rect class="bb" x="713.61" y="287.84" width="152.57" height="484.25" transform="translate(-93.4 882.96) rotate(-55.64)"/></clipPath><clipPath id="ac"><rect class="bb" x="712.48" y="288.47" width="155.54" height="487.08" transform="translate(-94.93 884.13) rotate(-55.64)"/></clipPath><clipPath id="ad"><path class="bb" d="M695.9,373.3l274.1,187.39c34.69,23.71,43.58,71.06,19.87,105.74s-71.06,43.58-105.74,19.87l-274.1-187.39c-34.69-23.71-43.58-71.06-19.87-105.74s71.06-43.58,105.74-19.87Z"/></clipPath><clipPath id="ae"><rect class="bb" x="698.04" y="262.27" width="300" height="146.67"/></clipPath><clipPath id="af"><rect class="bb" x="698.88" y="270.37" width="298.51" height="130.46" transform="translate(-28.41 83.34) rotate(-5.53)"/></clipPath><clipPath id="ag"><rect class="bb" x="699.05" y="270.25" width="300.85" height="133.36" transform="translate(-28.53 83.48) rotate(-5.53)"/></clipPath><clipPath id="ah"><path class="bb" d="M758.8,278.73l166.09-16.09c36.17-3.51,68.3,22.72,71.77,58.58,3.47,35.85-23.03,67.77-59.19,71.27l-166.09,16.09c-36.17,3.5-68.3-22.73-71.77-58.58-3.47-35.86,23.03-67.77,59.19-71.27Z"/></clipPath><clipPath id="ai"><rect class="bb" x="42.04" y="424.93" width="184" height="141.33"/></clipPath><clipPath id="aj"><rect class="bb" x="67.27" y="403.86" width="134.88" height="183.53" transform="translate(-370.98 585.45) rotate(-84.87)"/></clipPath><clipPath id="ak"><rect class="bb" x="66.24" y="404.81" width="136.24" height="182.95" transform="translate(-371.95 585.7) rotate(-84.87)"/></clipPath><clipPath id="al"><path class="bb" d="M116.51,426.28l46.89,4.21c17.81,1.6,34.26,10.21,45.72,23.94,11.46,13.73,17.01,31.45,15.41,49.26s-10.21,34.26-23.94,45.72c-13.73,11.46-31.45,17.01-49.26,15.41l-46.89-4.21c-17.81-1.6-34.26-10.21-45.72-23.94s-17.01-31.45-15.41-49.26,10.21-34.26,23.94-45.72c13.73-11.46,31.45-17.01,49.26-15.41Z"/></clipPath><clipPath id="am"><rect class="bb" x="288.71" y="838.27" width="176" height="180"/></clipPath><clipPath id="an"><rect class="bb" x="309.59" y="830.67" width="134.88" height="194.59" transform="translate(-519.69 481.68) rotate(-41.43)"/></clipPath><clipPath id="ao"><rect class="bb" x="308.59" y="828.01" width="136.25" height="197.12" transform="translate(-518.84 481.13) rotate(-41.43)"/></clipPath><clipPath id="ap"><path class="bb" d="M345.66,994.33l-38.38-43.48c-11.98-13.58-18.15-31.31-17.15-49.28,1.01-17.97,9.11-34.71,22.52-46.55,13.41-11.84,31.03-17.79,48.99-16.56,17.95,1.23,34.78,9.56,46.76,23.14l38.38,43.48c11.98,13.58,18.16,31.31,17.15,49.28-1.01,17.97-9.1,34.72-22.52,46.55-13.41,11.83-31.03,17.79-48.99,16.55-17.96-1.23-34.78-9.56-46.77-23.14Z"/></clipPath><clipPath id="aq"><rect class="bb" x="884.71" y="392.93" width="152" height="153.33"/></clipPath><clipPath id="ar"><rect class="bb" x="896.54" y="388.8" width="128.25" height="161.42" transform="translate(-70.29 753.15) rotate(-41.43)"/></clipPath><clipPath id="as"><rect class="bb" x="895.46" y="385.93" width="129.14" height="164.35" transform="translate(-69.53 752.36) rotate(-41.43)"/></clipPath><clipPath id="at"><path class="bb" d="M923.79,524.63l-22.41-25.39c-11.19-12.68-16.89-29.29-15.83-46.17,1.05-16.88,8.77-32.66,21.45-43.85,12.68-11.19,29.29-16.89,46.17-15.83,16.88,1.06,32.66,8.77,43.85,21.45l22.41,25.39c11.19,12.68,16.89,29.29,15.83,46.18-1.05,16.88-8.77,32.65-21.45,43.84-12.68,11.19-29.29,16.89-46.17,15.83-16.88-1.05-32.66-8.77-43.85-21.45Z"/></clipPath></defs><g id="b"><g class="cw"><g class="cm"><path class="cp" d="M12.98,12.99h1048.7v1032.57H12.98V12.99Z"/></g></g><g class="co"><g class="bn"><path class="ba" d="M758.27,17.23l298.58,298.58c2.72,2.71,4.24,6.4,4.24,10.23v405.71c0,3.84-1.52,7.52-4.24,10.24l-298.58,298.58c-2.71,2.71-6.4,4.24-10.23,4.24h-421.99c-3.84,0-7.52-1.53-10.23-4.24L17.23,742c-2.72-2.72-4.24-6.4-4.24-10.24v-405.71c0-3.84,1.52-7.52,4.24-10.23L315.81,17.23c2.71-2.71,6.4-4.24,10.23-4.24h421.99c3.84,0,7.52,1.53,10.23,4.24Z"/></g></g><g class="ch"><g class="by"><g class="bg"><g class="bo"><path class="bd" d="M212.63,691.11l315.46,7.28c40.24.93,72.11,34.3,71.19,74.54-.93,40.24-34.31,72.11-74.55,71.19l-315.46-7.28c-40.24-.93-72.11-34.3-71.19-74.54.93-40.24,34.31-72.11,74.55-71.19Z"/></g></g></g></g><g class="bj"><g class="cl"><g class="bm"><g class="cd"><path class="be" d="M511.4,850.12l272.51-40.26c35.87-5.3,69.22,19.3,74.48,54.94,5.27,35.64-19.55,68.83-55.42,74.12l-272.51,40.26c-35.87,5.3-69.22-19.3-74.48-54.94-5.27-35.64,19.55-68.82,55.42-74.12Z"/></g></g></g></g><g class="cb"><g class="bx"><g class="bk"><g class="ce"><path class="av" d="M210.39,547.38l306.99-84.68c39.88-11,81.12,12.41,92.12,52.29,11,39.88-12.41,81.13-52.29,92.13l-306.99,84.68c-39.88,11-81.13-12.41-92.13-52.29-11-39.88,12.41-81.12,52.29-92.12Z"/></g></g></g></g><g class="cf"><g class="bf"><g class="cx"><g class="cc"><path class="ax" d="M204.32,290.8l314.28,28.23c40.09,3.6,69.67,39.02,66.07,79.11-3.6,40.09-39.02,69.67-79.11,66.07l-314.28-28.23c-40.09-3.6-69.67-39.02-66.07-79.11,3.6-40.09,39.02-69.67,79.11-66.07Z"/></g></g></g></g><g class="cr"><g class="bi"><g class="cu"><g class="ci"><path class="ay" d="M645.06,591.08l271.17,108.09c37.39,14.91,55.62,57.3,40.71,94.69-14.91,37.39-57.3,55.62-94.69,40.71l-271.17-108.09c-37.39-14.91-55.62-57.3-40.71-94.69s57.3-55.62,94.69-40.72Z"/></g></g></g></g><g class="bp"><g class="cs"><g class="bs"><g class="bt"><path class="bc" d="M695.9,373.3l274.1,187.39c34.69,23.71,43.58,71.06,19.87,105.74-23.71,34.69-71.06,43.58-105.74,19.87l-274.1-187.39c-34.69-23.71-43.58-71.06-19.87-105.74,23.71-34.69,71.06-43.58,105.74-19.87Z"/></g></g></g></g><path class="br" d="M208.94,740.88l16.33,41.15c.44.96.4,1.95-.15,2.98-.53,1.01-1.45,1.55-2.75,1.63-1.52-.03-2.54-.73-3.06-2.1l-3.19-8.46-23.4-.54-3.58,8.31c-.58,1.39-1.6,2.01-3.06,1.88-1.25-.08-2.15-.6-2.69-1.56-.53-.97-.55-2.01-.06-3.1l18.06-40.27c.43-.83.95-1.53,1.56-2.1.61-.57,1.4-.84,2.35-.83.96.03,1.69.27,2.21.71.53.45,1,1.22,1.42,2.33ZM205.13,746.82l-9.83,22.73,18.56.44-8.73-23.17Z"/><path class="br" d="M232.34,780.75l23.02.52c.9.03,1.66.35,2.27.98.61.61.91,1.24.9,1.9-.03.91-.36,1.67-1,2.29-.64.61-1.41.9-2.31.88l-26.27-.6c-2.21-.04-3.29-1.15-3.23-3.31l.96-41.79c.01-.9.35-1.66,1.02-2.27.67-.63,1.45-.93,2.35-.92.9.03,1.66.37,2.27,1.02.63.64.93,1.41.92,2.31l-.9,39Z"/><path class="br" d="M260.7,787.44c-.91-.02-1.68-.34-2.31-.98-.64-.65-.95-1.43-.92-2.33l.96-41.88c.03-1,.38-1.77,1.06-2.31.68-.54,1.42-.8,2.23-.79.4.02.82.09,1.25.23.43.13.81.38,1.15.75l16.9,21.5,17.67-20.71c.42-.34.83-.57,1.25-.69.43-.13.8-.18,1.1-.17.96.02,1.74.35,2.35,1,.61.64.91,1.39.9,2.23l-.96,41.88c-.03.91-.38,1.66-1.04,2.27-.67.63-1.45.93-2.35.92-.86-.03-1.61-.37-2.25-1.02-.64-.64-.95-1.41-.92-2.31l.77-33.5-14.58,17.25c-1.43,1.38-2.86,1.35-4.29-.08l-13.85-17.92-.77,33.5c-.03.91-.37,1.67-1.02,2.29-.64.61-1.41.9-2.31.88Z"/><path class="br" d="M329.41,743.66l16.33,41.15c.44.96.4,1.95-.15,2.98-.53,1.01-1.45,1.55-2.75,1.63-1.52-.03-2.54-.73-3.06-2.1l-3.19-8.46-23.4-.54-3.58,8.31c-.58,1.39-1.6,2.01-3.06,1.88-1.25-.08-2.15-.6-2.69-1.56-.53-.97-.55-2.01-.06-3.1l18.06-40.27c.43-.83.95-1.53,1.56-2.1.61-.57,1.4-.84,2.35-.83.96.03,1.69.27,2.21.71.53.45,1,1.22,1.42,2.33ZM325.6,749.6l-9.83,22.73,18.56.44-8.73-23.17Z"/><path class="br" d="M368.18,790.53c-3.32-.08-6.44-.8-9.35-2.15-2.91-1.34-5.45-3.19-7.65-5.52-2.18-2.34-3.89-5.02-5.1-8.02-1.21-3-1.77-6.19-1.69-9.56.07-3.22.74-6.3,2.02-9.23,1.28-2.94,3.02-5.55,5.23-7.83,2.22-2.29,4.82-4.08,7.79-5.38,2.97-1.29,6.19-1.9,9.67-1.81,6.65.16,12.36,2.55,17.13,7.19.69.63,1.09,1.37,1.19,2.23.11.85-.09,1.62-.6,2.31-.58.68-1.34,1-2.27.96-.92-.04-1.73-.35-2.44-.94-1.78-1.69-3.75-3.03-5.92-4-2.16-.98-4.44-1.51-6.85-1.56-3.27-.07-6.29.67-9.06,2.21-2.78,1.54-5.01,3.69-6.69,6.44-1.67,2.75-2.54,5.94-2.63,9.56-.08,3.32.63,6.4,2.13,9.23s3.57,5.13,6.21,6.88c2.65,1.74,5.67,2.65,9.04,2.73,4.93.11,9.32-1.47,13.17-4.75.72-.53,1.55-.79,2.48-.79.93-.01,1.64.34,2.13,1.06.54.71.72,1.48.54,2.31-.17.82-.58,1.55-1.25,2.19-2.57,2.27-5.29,3.89-8.17,4.88-2.86.98-5.88,1.44-9.04,1.38Z"/><path class="br" d="M419.73,791.12l-27.71-.65c-.81-.11-1.52-.47-2.13-1.08-.61-.63-.91-1.39-.88-2.29l.96-41.73c.01-.9.34-1.66.98-2.27.64-.63,1.44-.93,2.4-.92l27.48.65c.89.02,1.64.35,2.25,1,.63.64.93,1.41.92,2.31-.02.71-.35,1.35-1,1.92-.64.56-1.41.83-2.29.81l-24.23-.56-.35,14.85,18.71.42c.92.03,1.65.33,2.21.9.57.57.84,1.26.83,2.06-.02.85-.32,1.58-.92,2.21-.58.61-1.33.91-2.25.88l-18.71-.42-.35,15.31,24.23.56c.89.02,1.64.33,2.25.96.63.61.93,1.27.92,1.98-.03.85-.37,1.58-1.02,2.21-.64.61-1.41.91-2.29.9Z"/><path class="br" d="M462.23,743.78c.9.02,1.65.35,2.23,1,.59.64.89,1.39.88,2.23l-.96,41.88c-.04,1.42-.75,2.41-2.13,2.98-.56.23-1.16.27-1.81.1-.66-.16-1.22-.57-1.71-1.25l-27.52-36.19-.77,33.58c-.03.91-.37,1.67-1.02,2.29-.64.61-1.41.9-2.31.88-.91-.02-1.68-.34-2.31-.98-.64-.65-.95-1.43-.92-2.33l.96-41.71c.01-.76.23-1.42.65-1.96s.9-.91,1.44-1.1c.63-.23,1.3-.27,2.02-.1.72.17,1.32.56,1.81,1.17l27.33,35.88.77-33.27c.01-.84.34-1.57.98-2.19.64-.63,1.44-.92,2.4-.9Z"/><path class="br" d="M490.53,747.38l16.33,41.15c.44.96.4,1.95-.15,2.98-.53,1.01-1.45,1.55-2.75,1.63-1.52-.03-2.54-.73-3.06-2.1l-3.19-8.46-23.4-.54-3.58,8.31c-.58,1.39-1.6,2.01-3.06,1.88-1.25-.08-2.15-.6-2.69-1.56-.53-.97-.55-2.01-.06-3.1l18.06-40.27c.43-.83.95-1.53,1.56-2.1.61-.57,1.4-.84,2.35-.83.96.03,1.69.27,2.21.71.53.45,1,1.22,1.42,2.33ZM486.72,753.32l-9.83,22.73,18.56.44-8.73-23.17Z"/><path class="br" d="M498.32,805.68c-.96-.03-1.71-.32-2.25-.88-.54-.56-.8-1.24-.79-2.04.02-.61.26-1.23.73-1.85.46-.61,1.2-.96,2.21-1.04,3.07-.03,5.41-1.16,7.02-3.4,1.61-2.22,2.46-5.19,2.54-8.92l.92-39.38c.01-.96.32-1.74.94-2.35.63-.63,1.42-.92,2.38-.9.9.02,1.66.35,2.27,1,.63.64.93,1.44.92,2.4l-.92,39.38c-.1,4.22-.96,7.66-2.58,10.31-1.63,2.67-3.64,4.63-6.02,5.88-2.39,1.25-4.84,1.84-7.35,1.79Z"/><path class="br" d="M549.48,794.11l-27.71-.65c-.81-.11-1.52-.47-2.13-1.08-.61-.63-.91-1.39-.88-2.29l.96-41.73c.01-.9.34-1.66.98-2.27.64-.63,1.44-.93,2.4-.92l27.48.65c.89.02,1.64.35,2.25,1,.63.64.93,1.41.92,2.31-.02.71-.35,1.35-1,1.92-.64.56-1.41.83-2.29.81l-24.23-.56-.35,14.85,18.71.42c.92.03,1.65.33,2.21.9.57.57.84,1.26.83,2.06-.02.85-.32,1.58-.92,2.21-.58.61-1.33.91-2.25.88l-18.71-.42-.35,15.31,24.23.56c.89.02,1.64.33,2.25.96.63.61.93,1.27.92,1.98-.03.85-.37,1.58-1.02,2.21-.64.61-1.41.91-2.29.9Z"/><g class="cn"><g class="bh"><g class="ca"><g class="ct"><path class="be" d="M758.8,278.73l166.09-16.09c36.17-3.51,68.3,22.72,71.77,58.58,3.47,35.85-23.03,67.77-59.19,71.27l-166.09,16.09c-36.17,3.5-68.3-22.73-71.77-58.58-3.47-35.86,23.03-67.77,59.19-71.27Z"/></g></g></g></g><path class="br" d="M776.33,363.81c-3.22.31-6.32-.02-9.29-.98-2.97-.97-5.66-2.46-8.04-4.46-2.39-2.01-4.35-4.4-5.88-7.15-1.52-2.75-2.43-5.76-2.73-9.02-.31-3.13-.02-6.18.88-9.17.89-3,2.27-5.73,4.15-8.19,1.89-2.47,4.19-4.5,6.92-6.08,2.72-1.59,5.76-2.55,9.13-2.88,6.43-.63,12.21,1.02,17.35,4.94.75.52,1.22,1.18,1.42,2,.21.82.1,1.6-.31,2.33-.47.74-1.16,1.14-2.06,1.19-.91.06-1.72-.15-2.46-.6-1.91-1.44-3.96-2.51-6.17-3.21-2.21-.69-4.48-.93-6.81-.71-3.17.31-6.01,1.37-8.52,3.19-2.52,1.81-4.42,4.14-5.71,7-1.29,2.86-1.77,6.05-1.42,9.56.3,3.21,1.34,6.09,3.1,8.65,1.78,2.56,4.05,4.53,6.81,5.92,2.78,1.39,5.8,1.93,9.06,1.6,4.76-.46,8.82-2.51,12.17-6.15.63-.58,1.38-.93,2.27-1.04.9-.11,1.63.15,2.19.77.59.64.86,1.37.79,2.19-.07.82-.39,1.57-.96,2.25-2.22,2.49-4.66,4.38-7.31,5.67-2.64,1.29-5.49,2.08-8.56,2.38Z"/><path class="br" d="M812.13,315.4l20.54,37.88c.54.88.61,1.83.23,2.88-.39,1.04-1.22,1.68-2.48,1.92-1.46.14-2.52-.43-3.19-1.71l-4.1-7.79-22.63,2.21-2.52,8.42c-.41,1.43-1.31,2.17-2.73,2.21-1.22.06-2.15-.34-2.77-1.21-.63-.86-.77-1.85-.44-2.98l12.77-41.02c.3-.86.72-1.59,1.25-2.21.54-.63,1.28-.98,2.21-1.06.93-.08,1.67.06,2.21.42.54.35,1.09,1.04,1.65,2.06ZM809.11,321.6l-6.85,23.1,18-1.75-11.15-21.35Z"/><path class="br" d="M856.61,338.63l9.4,10.67c.76.86,1.17,1.7,1.23,2.5.07.81-.22,1.49-.88,2.04-.61.6-1.39.95-2.31,1.04-.93.08-1.76-.28-2.48-1.08l-11.19-12.73c-.49.1-.97.18-1.46.25-.49.07-.99.13-1.52.17l-8.92.88,1.1,11.56c.09.88-.14,1.65-.69,2.31-.56.67-1.27,1.05-2.15,1.15-.88.08-1.66-.15-2.35-.71-.68-.55-1.07-1.27-1.17-2.15l-3.92-40.48c-.08-.89.16-1.66.73-2.31.58-.67,1.31-1.04,2.19-1.13l13.08-1.27c3.17-.3,6.11.14,8.85,1.31,2.75,1.18,5.01,2.93,6.77,5.25,1.78,2.31,2.81,4.99,3.1,8.06.34,3.52-.19,6.49-1.6,8.92-1.42,2.42-3.36,4.33-5.83,5.75ZM835.94,316.13l1.96,20.33,9.94-.96c3.22-.32,5.75-1.51,7.58-3.58,1.84-2.07,2.63-4.52,2.35-7.35-.18-1.89-.8-3.58-1.85-5.08-1.06-1.5-2.45-2.65-4.17-3.44-1.72-.8-3.66-1.1-5.79-.9l-10.02.98Z"/><path class="br" d="M890.31,352.77c-3.17.31-6.22-.03-9.15-1-2.92-.97-5.57-2.46-7.96-4.46-2.39-2.01-4.35-4.4-5.88-7.15-1.52-2.75-2.43-5.76-2.73-9.02-.32-3.22-.02-6.34.9-9.35.92-3.03,2.34-5.76,4.29-8.21,1.96-2.44,4.3-4.44,7.02-5.98,2.73-1.54,5.76-2.47,9.08-2.79,3.17-.3,6.11-.06,8.83.73,2.73.78,5.43,2.2,8.08,4.25.73.52,1.21,1.18,1.44,2,.23.81.13,1.58-.33,2.33-.45.68-1.14,1.06-2.06,1.13-.92.06-1.74-.13-2.48-.54-1.85-1.44-3.88-2.51-6.08-3.21-2.21-.69-4.46-.93-6.75-.71-3.11.29-5.91,1.33-8.4,3.13-2.49,1.79-4.39,4.12-5.71,6.98-1.32,2.85-1.81,6.03-1.48,9.54.32,3.22,1.36,6.13,3.13,8.71,1.78,2.57,4.05,4.55,6.81,5.94,2.78,1.39,5.8,1.93,9.06,1.6,2.23-.22,4.36-.77,6.4-1.65,2.03-.89,3.74-2.17,5.15-3.83l-.73-7.67-8.63.83c-.89.08-1.66-.14-2.29-.67-.63-.53-.97-1.13-1.04-1.79-.08-.83.13-1.56.65-2.19.53-.63,1.23-.98,2.13-1.06l11.33-1.08c.88-.09,1.67.12,2.38.65.72.52,1.13,1.22,1.23,2.1l1.08,11.23c.11,1.24-.31,2.31-1.25,3.23-2.36,2.5-4.83,4.39-7.42,5.65-2.58,1.25-5.46,2.03-8.63,2.33Z"/><path class="br" d="M926.34,304.33l20.54,37.88c.54.88.61,1.83.23,2.88-.39,1.04-1.22,1.68-2.48,1.92-1.46.14-2.52-.43-3.19-1.71l-4.1-7.79-22.63,2.21-2.52,8.42c-.41,1.43-1.31,2.17-2.73,2.21-1.22.06-2.15-.34-2.77-1.21-.63-.86-.77-1.85-.44-2.98l12.77-41.02c.3-.86.72-1.59,1.25-2.21.54-.63,1.28-.98,2.21-1.06.93-.08,1.67.06,2.21.42.54.35,1.09,1.04,1.65,2.06ZM923.32,310.54l-6.85,23.1,18-1.75-11.15-21.35Z"/><g class="bq"><g class="cq"><g class="bz"><g class="bu"><path class="aw" d="M116.51,426.28l46.89,4.21c17.81,1.6,34.26,10.21,45.72,23.94,11.46,13.73,17.01,31.45,15.41,49.26-1.6,17.81-10.21,34.26-23.94,45.72-13.73,11.46-31.45,17.01-49.26,15.41l-46.89-4.21c-17.81-1.6-34.26-10.21-45.72-23.94-11.46-13.73-17.01-31.45-15.41-49.26,1.6-17.81,10.21-34.26,23.94-45.72,13.73-11.46,31.45-17.01,49.26-15.41Z"/></g></g></g></g><g class="bv"><g class="au"><g class="cj"><g class="ck"><path class="be" d="M345.66,994.33l-38.38-43.48c-11.98-13.58-18.15-31.31-17.15-49.28,1.01-17.97,9.11-34.71,22.52-46.55,13.41-11.84,31.03-17.79,48.99-16.56,17.95,1.23,34.78,9.56,46.76,23.14l38.38,43.48c11.98,13.58,18.16,31.31,17.15,49.28-1.01,17.97-9.1,34.72-22.52,46.55-13.41,11.83-31.03,17.79-48.99,16.55-17.96-1.23-34.78-9.56-46.77-23.14Z"/></g></g></g></g><g class="bw"><g class="bl"><g class="cv"><g class="cg"><path class="az" d="M923.79,524.63l-22.41-25.39c-11.19-12.68-16.89-29.29-15.83-46.17,1.05-16.88,8.77-32.66,21.45-43.85,12.68-11.19,29.29-16.89,46.17-15.83,16.88,1.06,32.66,8.77,43.85,21.45l22.41,25.39c11.19,12.68,16.89,29.29,15.83,46.18-1.05,16.88-8.77,32.65-21.45,43.84-12.68,11.19-29.29,16.89-46.17,15.83-16.88-1.05-32.66-8.77-43.85-21.45Z"/></g></g></g></g><path class="br" d="M560.3,935.61c-3.86.58-7.22.24-10.08-1.02-2.85-1.28-5.01-2.9-6.48-4.88-.78-1.07-.99-2.14-.65-3.21.36-1.08,1.15-1.71,2.35-1.9.4-.05.89-.03,1.46.06.58.08,1.19.52,1.81,1.29.96,1.29,2.44,2.28,4.44,2.96,2.01.67,4.32.81,6.92.42,2.61-.4,4.72-1.38,6.33-2.92,1.61-1.55,2.2-3.76,1.77-6.63-.32-2.11-1.55-3.6-3.69-4.48-2.13-.88-4.84-1.69-8.15-2.44-2.38-.55-4.69-1.25-6.94-2.08-2.25-.84-4.17-2.06-5.75-3.65-1.57-1.58-2.55-3.73-2.96-6.44-.42-2.71-.13-5.07.88-7.08,1-2.03,2.51-3.67,4.52-4.92,2.01-1.26,4.3-2.09,6.85-2.48,2.97-.44,5.82-.26,8.54.54,2.73.79,4.98,2.24,6.73,4.33.48.54.67,1.14.56,1.79-.1.66-.31,1.22-.65,1.69-.39.5-1.03.87-1.92,1.1-.89.24-1.81-.05-2.75-.88-1.25-1.19-2.74-1.95-4.48-2.27-1.74-.33-3.56-.35-5.48-.06-1.21.18-2.35.54-3.42,1.08-1.07.54-1.91,1.31-2.5,2.29-.6.99-.79,2.24-.56,3.75.25,1.6.92,2.84,2,3.73,1.08.89,2.32,1.55,3.73,1.98,1.4.43,2.69.79,3.85,1.06,3.13.68,5.97,1.49,8.54,2.42,2.58.93,4.72,2.18,6.42,3.73,1.69,1.54,2.74,3.64,3.15,6.29.43,2.86.09,5.47-1.02,7.81-1.11,2.35-2.83,4.31-5.17,5.9-2.32,1.57-5.06,2.6-8.23,3.08Z"/><path class="br" d="M609.84,927.51l-27.6,4.17c-.81.03-1.57-.21-2.29-.71-.71-.51-1.14-1.22-1.27-2.13l-6.27-41.6c-.14-.89.06-1.69.6-2.42.53-.73,1.26-1.17,2.21-1.31l27.38-4.15c.9-.13,1.71.08,2.42.63.72.53,1.15,1.24,1.29,2.13.11.71-.1,1.41-.65,2.08-.54.67-1.27,1.06-2.17,1.19l-24.15,3.65,2.23,14.83,18.67-2.81c.9-.14,1.68.03,2.33.5.67.46,1.06,1.08,1.19,1.88.13.86-.06,1.66-.54,2.38-.47.71-1.16,1.14-2.06,1.27l-18.67,2.81,2.29,15.25,24.15-3.65c.9-.13,1.71.07,2.44.58.72.5,1.13,1.1,1.23,1.81.13.85-.08,1.64-.6,2.35-.53.72-1.24,1.15-2.15,1.27Z"/><path class="br" d="M635.81,924.23c-3.27.49-6.44.31-9.52-.52-3.07-.84-5.9-2.24-8.48-4.19-2.57-1.96-4.72-4.32-6.44-7.08-1.72-2.76-2.84-5.82-3.35-9.19-.5-3.3-.36-6.54.42-9.71.79-3.17,2.13-6.07,4-8.71,1.89-2.65,4.2-4.85,6.94-6.6,2.73-1.75,5.81-2.88,9.23-3.4,3.25-.48,6.31-.39,9.19.29,2.88.67,5.74,1.99,8.6,3.98.79.49,1.32,1.15,1.6,1.98.28.83.19,1.64-.25,2.42-.41.72-1.09,1.15-2.06,1.27-.96.13-1.82-.01-2.58-.42-2.02-1.38-4.18-2.36-6.5-2.96-2.31-.61-4.64-.73-7-.38-3.21.47-6.05,1.71-8.52,3.71-2.47,1.99-4.31,4.49-5.52,7.52-1.21,3.02-1.54,6.33-1,9.94.5,3.31,1.73,6.25,3.71,8.83,1.98,2.58,4.44,4.51,7.38,5.77,2.94,1.27,6.09,1.65,9.46,1.15,2.29-.34,4.46-1.03,6.5-2.06,2.05-1.03,3.77-2.44,5.15-4.23l-1.19-7.9-8.88,1.33c-.89.14-1.68-.04-2.38-.54-.7-.51-1.1-1.13-1.21-1.83-.13-.84.07-1.6.58-2.27.51-.67,1.21-1.07,2.1-1.21l11.67-1.75c.9-.14,1.73.04,2.5.54.78.49,1.23,1.18,1.38,2.08l1.75,11.58c.19,1.27-.18,2.41-1.1,3.42-2.32,2.7-4.79,4.77-7.4,6.21-2.6,1.45-5.52,2.42-8.77,2.92Z"/><path class="br" d="M685.16,866.91c.9-.13,1.71.08,2.44.63.72.53,1.15,1.22,1.27,2.06l3.69,24.38c.43,2.91.3,5.72-.4,8.44-.7,2.72-1.83,5.2-3.4,7.44-1.57,2.24-3.49,4.09-5.75,5.56-2.27,1.47-4.74,2.41-7.44,2.81-2.86.43-5.6.28-8.23-.46-2.63-.73-5.02-1.94-7.17-3.6-2.14-1.67-3.92-3.7-5.33-6.1-1.42-2.42-2.34-5.07-2.77-7.98l-3.65-24.23c-.14-.9.06-1.71.6-2.44.53-.72,1.24-1.15,2.13-1.27.84-.14,1.65.06,2.4.58.75.53,1.19,1.24,1.33,2.15l3.69,24.52c.4,2.71,1.39,5.08,2.96,7.13,1.57,2.04,3.51,3.56,5.81,4.56,2.3.99,4.73,1.29,7.29.9,2.51-.38,4.71-1.38,6.58-3,1.89-1.63,3.28-3.64,4.17-6.04.89-2.42,1.13-4.98.73-7.69l-3.73-24.67c-.13-.9.07-1.7.6-2.4.54-.71,1.26-1.13,2.17-1.27Z"/><path class="br" d="M721.48,893.16l10.25,10.52c.86.83,1.34,1.68,1.44,2.52.11.83-.16,1.55-.79,2.15-.61.66-1.4,1.06-2.35,1.21-.95.14-1.82-.19-2.63-.98l-12.23-12.56c-.52.13-1.02.24-1.52.35-.49.1-1.01.19-1.56.27l-9.19,1.38,1.79,11.9c.13.91-.08,1.72-.6,2.44-.53.72-1.24,1.16-2.15,1.29-.89.13-1.71-.07-2.46-.58-.75-.53-1.19-1.24-1.31-2.15l-6.29-41.69c-.14-.89.08-1.7.65-2.44.55-.73,1.28-1.17,2.17-1.29l13.48-2.04c3.25-.48,6.32-.19,9.23.9,2.92,1.07,5.35,2.76,7.31,5.06,1.96,2.29,3.17,5.02,3.65,8.17.54,3.6.15,6.7-1.19,9.29-1.32,2.58-3.22,4.68-5.69,6.29ZM698.82,871.01l3.15,20.92,10.25-1.54c3.3-.5,5.85-1.86,7.65-4.1,1.8-2.25,2.48-4.82,2.04-7.73-.29-1.96-1.03-3.68-2.21-5.17-1.18-1.5-2.69-2.61-4.52-3.33-1.82-.72-3.83-.92-6.02-.58l-10.33,1.54Z"/><path class="br" d="M757.75,905.83c-3.42.52-6.71.36-9.88-.46-3.17-.83-6.06-2.21-8.69-4.13-2.63-1.93-4.81-4.28-6.54-7.06-1.72-2.79-2.84-5.89-3.35-9.29-.51-3.42-.36-6.71.46-9.88.83-3.18,2.22-6.07,4.17-8.67,1.94-2.61,4.3-4.78,7.08-6.5,2.79-1.73,5.9-2.86,9.31-3.38,3.42-.51,6.71-.35,9.88.48,3.18.82,6.09,2.19,8.73,4.1,2.65,1.92,4.85,4.27,6.6,7.06,1.76,2.78,2.9,5.88,3.42,9.29.51,3.41.34,6.7-.52,9.88-.85,3.17-2.26,6.06-4.23,8.67-1.96,2.61-4.33,4.79-7.13,6.52-2.79,1.72-5.9,2.84-9.31,3.35ZM756.84,899.67c3.46-.53,6.45-1.81,8.98-3.85,2.54-2.04,4.4-4.59,5.58-7.65,1.18-3.05,1.51-6.31,1-9.77-.53-3.51-1.81-6.54-3.83-9.08-2.03-2.54-4.56-4.42-7.58-5.63-3.03-1.21-6.27-1.55-9.73-1.02-3.42.52-6.39,1.79-8.9,3.83-2.5,2.04-4.35,4.58-5.54,7.6-1.18,3.02-1.51,6.28-.98,9.79.51,3.46,1.78,6.48,3.81,9.06,2.04,2.57,4.56,4.46,7.56,5.67s6.21,1.56,9.63,1.04Z"/><path class="br" d="M203.42,603.09l12.19-3.35c2.98-.83,5.97-1.05,8.96-.65,2.98.39,5.77,1.32,8.35,2.79,2.58,1.46,4.81,3.35,6.69,5.67,1.89,2.31,3.25,4.95,4.08,7.94.82,3,1.01,5.98.58,8.94-.43,2.95-1.39,5.68-2.88,8.21-1.47,2.53-3.4,4.73-5.77,6.6-2.36,1.86-5.04,3.21-8.02,4.04l-12.19,3.35c-.82.22-1.6.14-2.35-.27-.75-.4-1.24-1.01-1.46-1.83l-10.42-37.75c-.22-.82-.11-1.58.33-2.29.45-.71,1.08-1.17,1.9-1.4ZM216.85,640.38l9.31-2.56c3.22-.89,5.82-2.42,7.81-4.58,2-2.17,3.32-4.67,3.98-7.5.65-2.84.58-5.72-.21-8.63-.81-2.9-2.22-5.42-4.25-7.54-2.02-2.13-4.44-3.61-7.27-4.46-2.82-.86-5.81-.85-8.98.02l-9.4,2.58,9,32.67Z"/><path class="br" d="M254.59,635.82c-.82.22-1.6.14-2.35-.27-.75-.4-1.24-1.01-1.46-1.83l-10.42-37.75c-.22-.82-.11-1.58.33-2.29.45-.71,1.08-1.17,1.9-1.4.82-.22,1.59-.14,2.31.25.71.38,1.18.97,1.4,1.79l10.42,37.75c.22.82.13,1.6-.29,2.33-.41.72-1.02,1.2-1.83,1.42Z"/><path class="br" d="M273.1,631.3c-3.49.97-6.62,1.04-9.4.19-2.77-.86-4.94-2.11-6.52-3.77-.85-.89-1.17-1.84-.96-2.88.21-1.04.85-1.71,1.94-2.02.36-.09.81-.13,1.35-.1.55.02,1.17.35,1.83,1,1.03,1.1,2.49,1.84,4.4,2.23,1.92.39,4.06.26,6.44-.4,2.36-.65,4.19-1.78,5.5-3.4,1.32-1.61,1.63-3.71.92-6.29-.53-1.9-1.83-3.14-3.9-3.71-2.07-.57-4.66-1.01-7.77-1.31-2.27-.26-4.48-.65-6.65-1.17-2.16-.53-4.04-1.44-5.67-2.73s-2.78-3.16-3.46-5.6c-.68-2.44-.67-4.65.04-6.63.7-1.97,1.91-3.65,3.63-5.02,1.71-1.39,3.71-2.4,6.02-3.02,2.68-.75,5.32-.91,7.94-.48,2.61.42,4.84,1.5,6.69,3.25.51.43.76.96.73,1.58-.03.61-.17,1.15-.42,1.6-.31.53-.86.95-1.67,1.27-.79.32-1.67.15-2.63-.52-1.28-.97-2.74-1.51-4.4-1.6-1.64-.11-3.31.07-5.02.54-1.1.31-2.11.77-3.04,1.4-.92.61-1.6,1.41-2.04,2.4-.45.97-.48,2.14-.1,3.48.4,1.46,1.15,2.54,2.25,3.25,1.09.7,2.31,1.16,3.65,1.4,1.33.24,2.56.43,3.69.56,2.93.27,5.63.7,8.1,1.29,2.48.58,4.59,1.49,6.31,2.73,1.73,1.22,2.94,3.03,3.6,5.42.71,2.58.68,5.02-.08,7.31-.75,2.29-2.11,4.29-4.08,6-1.96,1.71-4.37,2.96-7.23,3.75Z"/><path class="br" d="M276.06,583.06l28.79-7.94c.84-.23,1.63-.15,2.35.25.72.41,1.19.99,1.4,1.77.19.68.07,1.38-.35,2.08-.42.7-1.05,1.16-1.9,1.4l-11.44,3.15,9.69,35.1c.22.82.13,1.6-.29,2.33-.41.72-1.04,1.2-1.92,1.44-.77.21-1.52.11-2.27-.29-.74-.42-1.22-1.03-1.44-1.85l-9.69-35.1-11.44,3.17c-.78.21-1.53.11-2.25-.29-.72-.42-1.17-.92-1.33-1.5-.22-.82-.13-1.59.29-2.31.42-.72,1.02-1.19,1.79-1.4Z"/><path class="br" d="M337.57,596.25l10.63,8.56c.89.68,1.42,1.41,1.6,2.17.18.75.02,1.44-.48,2.06-.52.68-1.2,1.14-2.06,1.38-.85.24-1.68.03-2.5-.63l-12.71-10.19c-.45.18-.89.34-1.33.48-.43.14-.91.29-1.42.44l-8.29,2.27,2.96,10.73c.22.82.13,1.6-.29,2.33-.41.72-1.02,1.2-1.83,1.42-.82.22-1.6.14-2.35-.27-.75-.4-1.24-1.01-1.46-1.83l-10.4-37.69c-.22-.82-.11-1.59.33-2.31.43-.73,1.06-1.21,1.88-1.44l12.19-3.35c2.94-.82,5.81-.89,8.6-.21,2.8.67,5.23,1.95,7.29,3.85,2.07,1.89,3.49,4.26,4.27,7.1.9,3.27.88,6.16-.06,8.69-.93,2.53-2.45,4.68-4.56,6.44ZM314.28,578.36l5.21,18.92,9.25-2.54c2.98-.83,5.18-2.38,6.58-4.63,1.42-2.26,1.76-4.71,1.02-7.35-.49-1.76-1.35-3.26-2.6-4.5-1.24-1.25-2.74-2.11-4.5-2.58-1.77-.47-3.65-.43-5.65.13l-9.31,2.56Z"/><path class="br" d="M354.89,608.16c-.82.22-1.6.14-2.35-.27-.75-.4-1.24-1.01-1.46-1.83l-10.42-37.75c-.22-.82-.11-1.58.33-2.29.45-.71,1.08-1.17,1.9-1.4.82-.22,1.59-.14,2.31.25.71.38,1.18.97,1.4,1.79l10.42,37.75c.22.82.13,1.6-.29,2.33-.41.72-1.02,1.2-1.83,1.42Z"/><path class="br" d="M380.22,576.34c2.33.14,4.46.97,6.38,2.5,1.92,1.52,3.2,3.48,3.85,5.9.65,2.35.67,4.65.04,6.9s-1.77,4.21-3.44,5.88c-1.67,1.66-3.72,2.81-6.17,3.48l-16,4.42c-.82.22-1.6.14-2.35-.27-.75-.4-1.24-1.01-1.46-1.83l-10.4-37.69c-.23-.86-.13-1.65.31-2.35.45-.71,1.08-1.17,1.9-1.4l15.58-4.29c2.18-.59,4.3-.61,6.35-.06,2.05.54,3.84,1.56,5.38,3.04,1.53,1.49,2.59,3.31,3.19,5.48.53,1.92.48,3.81-.15,5.69s-1.64,3.42-3.02,4.63ZM369.83,563.48l-12.4,3.42,3.31,12.04,12.25-3.38c1.76-.48,3.07-1.49,3.92-3.02.86-1.54,1.07-3.09.63-4.67-.43-1.59-1.41-2.84-2.94-3.73-1.52-.9-3.1-1.13-4.77-.67ZM366.2,598.67l12.85-3.54c2.04-.55,3.59-1.71,4.65-3.46,1.05-1.76,1.32-3.59.79-5.5-.56-2-1.73-3.45-3.52-4.35-1.78-.9-3.71-1.07-5.79-.5l-12.79,3.52,3.81,13.83Z"/><path class="br" d="M415.47,544.6c.82-.22,1.59-.13,2.31.27.72.41,1.19.99,1.4,1.77l6.08,22.04c.72,2.63.91,5.24.56,7.83-.33,2.58-1.1,4.99-2.29,7.23-1.18,2.22-2.74,4.14-4.67,5.75-1.92,1.6-4.1,2.74-6.54,3.42-2.58.71-5.13.87-7.63.48-2.49-.39-4.82-1.23-7-2.52-2.17-1.3-4.04-2.98-5.6-5.04-1.57-2.07-2.71-4.42-3.44-7.04l-6.04-21.9c-.22-.82-.13-1.59.29-2.31.41-.73,1.02-1.21,1.83-1.44.75-.21,1.5-.11,2.25.29.75.41,1.24,1.02,1.46,1.83l6.13,22.17c.67,2.45,1.83,4.53,3.5,6.25,1.68,1.71,3.63,2.9,5.85,3.56,2.23.66,4.51.66,6.83.02,2.26-.63,4.17-1.78,5.73-3.48,1.57-1.71,2.63-3.72,3.17-6.04.55-2.33.5-4.72-.17-7.17l-6.17-22.31c-.22-.82-.13-1.57.29-2.27.43-.71,1.05-1.17,1.85-1.4Z"/><path class="br" d="M453.19,581.64c-3,.82-5.99,1.02-8.96.6-2.97-.43-5.76-1.4-8.35-2.9-2.58-1.51-4.82-3.44-6.71-5.79-1.89-2.36-3.25-5.06-4.08-8.1-.8-2.9-1.03-5.84-.69-8.81.35-2.97,1.21-5.78,2.58-8.44,1.38-2.65,3.21-4.95,5.52-6.9,2.32-1.96,5.04-3.38,8.17-4.25,5.98-1.64,11.74-1.03,17.27,1.81.78.39,1.33.95,1.67,1.69.33.72.35,1.47.06,2.25-.32.77-.91,1.25-1.75,1.46-.83.21-1.64.16-2.42-.17-2.04-1.04-4.17-1.71-6.38-2-2.21-.3-4.41-.16-6.58.44-2.95.81-5.45,2.28-7.52,4.42-2.07,2.14-3.49,4.67-4.25,7.58-.75,2.92-.68,6.01.23,9.27.82,3,2.28,5.57,4.38,7.71,2.09,2.13,4.57,3.61,7.42,4.46,2.84.85,5.79.85,8.83.02,4.44-1.23,7.95-3.84,10.52-7.81.5-.67,1.16-1.13,1.98-1.38.83-.26,1.57-.14,2.21.38.67.49,1.03,1.13,1.1,1.92.08.78-.09,1.55-.52,2.31-1.71,2.71-3.72,4.9-6.02,6.56-2.29,1.66-4.86,2.88-7.71,3.67Z"/><path class="br" d="M474.72,575.11c-.82.22-1.6.14-2.35-.27-.75-.4-1.24-1.01-1.46-1.83l-10.42-37.75c-.22-.82-.11-1.58.33-2.29.45-.71,1.08-1.17,1.9-1.4.82-.22,1.59-.14,2.31.25.71.38,1.18.97,1.4,1.79l10.42,37.75c.22.82.13,1.6-.29,2.33-.41.72-1.02,1.2-1.83,1.42Z"/><path class="br" d="M485.88,519.74c-.63.18-1.22.1-1.77-.23-.56-.33-.95-.81-1.19-1.44-.22-.63-.14-1.28.27-1.98l3.92-7.02c.32-.61.82-1.01,1.5-1.21.72-.19,1.36-.13,1.92.21.57.33.96.81,1.17,1.44.22.63.14,1.28-.25,1.96l-4,7.04c-.16.33-.38.6-.67.81-.28.2-.58.33-.9.42ZM502.21,568.1c-3.08.86-6.14,1.08-9.15.67-3.02-.42-5.84-1.36-8.48-2.83-2.63-1.47-4.89-3.4-6.79-5.77-1.89-2.38-3.26-5.1-4.1-8.19-.86-3.09-1.08-6.15-.67-9.17.41-3.01,1.36-5.82,2.88-8.44,1.5-2.61,3.44-4.86,5.81-6.75,2.38-1.9,5.1-3.28,8.19-4.15,3.09-.84,6.15-1.06,9.17-.65,3.01.41,5.84,1.34,8.5,2.81,2.65,1.46,4.94,3.38,6.85,5.75,1.93,2.36,3.32,5.09,4.19,8.19.84,3.08,1.05,6.14.6,9.17-.43,3.02-1.41,5.83-2.94,8.46-1.53,2.61-3.48,4.87-5.85,6.77-2.38,1.91-5.11,3.28-8.21,4.13ZM500.67,562.52c3.14-.86,5.76-2.38,7.88-4.54,2.11-2.17,3.54-4.71,4.29-7.65.75-2.93.69-5.96-.17-9.1-.88-3.17-2.39-5.81-4.54-7.94-2.14-2.13-4.68-3.57-7.6-4.35-2.92-.79-5.95-.76-9.08.1-3.08.86-5.67,2.38-7.75,4.54s-3.51,4.71-4.27,7.63c-.75,2.92-.69,5.96.19,9.13.86,3.14,2.36,5.78,4.52,7.92,2.15,2.14,4.67,3.6,7.56,4.4,2.9.78,5.9.74,8.98-.13Z"/><path class="br" d="M548.22,507.99c.82-.22,1.57-.13,2.27.29.71.41,1.17.99,1.38,1.77l10.42,37.75c.34,1.28-.02,2.35-1.1,3.23-.42.38-.95.58-1.58.6-.63.03-1.24-.19-1.85-.67l-34.44-24.98,8.35,30.25c.22.82.13,1.6-.29,2.33-.41.72-1.02,1.2-1.83,1.42-.82.22-1.6.14-2.35-.27-.75-.4-1.24-1.01-1.46-1.83l-10.38-37.6c-.18-.68-.15-1.32.08-1.94.22-.61.56-1.07,1-1.38.49-.38,1.08-.58,1.77-.63.7-.05,1.35.13,1.96.54l34.13,24.79-8.29-30c-.21-.78-.1-1.53.31-2.25.42-.72,1.05-1.2,1.92-1.44Z"/><path class="br" d="M169.2,333.65l32.58,2.92c.97.1,1.75.49,2.33,1.19.58.7.84,1.48.77,2.35-.07.77-.45,1.43-1.15,2-.7.56-1.53.79-2.5.69l-12.96-1.15-3.58,39.73c-.08.92-.47,1.67-1.17,2.25-.68.58-1.52.83-2.5.75-.88-.08-1.62-.48-2.23-1.19-.6-.69-.85-1.5-.77-2.42l3.58-39.73-12.96-1.17c-.86-.08-1.59-.47-2.19-1.17-.58-.69-.85-1.38-.79-2.04.08-.93.47-1.69,1.17-2.27.71-.58,1.49-.83,2.35-.75Z"/><path class="br" d="M227.28,370.83l7.6,12.9c.63,1.03.88,1.96.77,2.79-.1.84-.53,1.5-1.29,1.96-.78.5-1.66.7-2.63.6-.97-.08-1.75-.61-2.33-1.58l-9.1-15.33c-.52,0-1.03,0-1.54-.02-.5-.03-1.04-.07-1.6-.13l-9.4-.83-1.1,12.17c-.08.92-.47,1.67-1.17,2.25-.7.59-1.51.85-2.44.77-.93-.08-1.7-.48-2.31-1.19-.61-.71-.88-1.52-.79-2.44l3.83-42.65c.08-.93.48-1.68,1.21-2.25.72-.58,1.55-.83,2.48-.75l13.79,1.23c3.33.29,6.3,1.32,8.92,3.08,2.61,1.77,4.6,4.02,5.98,6.75,1.39,2.74,1.94,5.72,1.65,8.96-.32,3.7-1.45,6.66-3.4,8.9-1.93,2.24-4.31,3.84-7.13,4.81ZM210.24,343.53l-1.92,21.4,10.48.94c3.39.31,6.23-.43,8.52-2.21,2.3-1.79,3.59-4.17,3.85-7.15.18-2-.13-3.88-.92-5.63s-2.01-3.2-3.65-4.35c-1.63-1.17-3.56-1.85-5.81-2.06l-10.56-.94Z"/><path class="br" d="M262.34,345.04l13.88,43.17c.38,1.01.26,2.02-.35,3.02-.6,1-1.56,1.5-2.9,1.5-1.56-.14-2.54-.93-2.96-2.38l-2.73-8.85-23.88-2.15-4.23,8.23c-.7,1.39-1.78,1.96-3.25,1.73-1.29-.17-2.18-.76-2.65-1.79-.47-1.03-.43-2.08.15-3.17l21.19-39.94c.5-.84,1.08-1.53,1.75-2.06.67-.53,1.48-.74,2.44-.65.98.08,1.73.37,2.23.85.51.47.95,1.3,1.31,2.48ZM257.99,350.87l-11.56,22.54,18.96,1.69-7.4-24.23Z"/><path class="br" d="M318.77,347.08c.93.08,1.67.47,2.23,1.17.57.7.82,1.48.75,2.35l-3.85,42.73c-.13,1.43-.91,2.4-2.35,2.9-.6.21-1.22.2-1.88-.02-.64-.21-1.18-.67-1.63-1.38l-25.71-38.88-3.08,34.27c-.08.92-.47,1.67-1.17,2.25-.7.59-1.51.85-2.44.77-.93-.08-1.7-.48-2.31-1.19-.61-.71-.88-1.52-.79-2.44l3.83-42.58c.07-.76.33-1.41.79-1.94.47-.54.99-.89,1.56-1.04.64-.18,1.32-.17,2.06.04.73.21,1.33.65,1.79,1.31l25.48,38.54,3.06-33.94c.07-.88.45-1.6,1.15-2.19.71-.58,1.54-.83,2.5-.75Z"/><path class="br" d="M335,398.83c-3.96-.35-7.2-1.49-9.71-3.42-2.5-1.94-4.24-4.07-5.23-6.38-.5-1.23-.45-2.34.15-3.33.59-1,1.51-1.44,2.75-1.33.42.04.9.18,1.44.42.54.22,1.03.79,1.48,1.71.64,1.52,1.86,2.85,3.69,4,1.82,1.14,4.06,1.83,6.73,2.06,2.67.25,4.98-.19,6.94-1.33,1.97-1.14,3.08-3.17,3.33-6.08.19-2.17-.66-3.94-2.54-5.33-1.89-1.39-4.38-2.84-7.46-4.38-2.22-1.13-4.35-2.36-6.38-3.73-2.03-1.38-3.63-3.03-4.79-4.98-1.17-1.96-1.63-4.32-1.38-7.08.25-2.78,1.11-5.04,2.58-6.79,1.47-1.75,3.35-3,5.65-3.75,2.3-.75,4.76-1.01,7.38-.77,3.03.27,5.8,1.12,8.31,2.56,2.51,1.45,4.38,3.41,5.6,5.88.34.67.39,1.31.13,1.94-.25.63-.6,1.13-1.04,1.5-.52.42-1.24.64-2.17.67-.93.02-1.77-.51-2.5-1.56-.96-1.47-2.26-2.57-3.9-3.31-1.64-.75-3.44-1.21-5.4-1.4-1.22-.11-2.43-.03-3.63.25-1.2.28-2.2.84-3.02,1.69-.82.83-1.3,2.02-1.44,3.54-.14,1.66.21,3.05,1.06,4.19.84,1.13,1.91,2.07,3.19,2.83,1.29.77,2.48,1.43,3.56,2,2.93,1.39,5.55,2.86,7.85,4.42,2.32,1.56,4.13,3.3,5.44,5.23,1.3,1.92,1.83,4.24,1.58,6.98-.25,2.92-1.21,5.41-2.88,7.46-1.67,2.06-3.84,3.58-6.52,4.58-2.68,1-5.64,1.35-8.88,1.06Z"/><path class="br" d="M357.85,400.27c-.99-.1-1.77-.49-2.35-1.19-.58-.71-.83-1.52-.75-2.44l3.83-42.65c.08-.93.48-1.68,1.21-2.25.72-.58,1.55-.83,2.48-.75l13.79,1.23c3.39.31,6.36,1.39,8.94,3.25,2.58,1.86,4.55,4.24,5.92,7.13,1.38,2.89,1.91,6,1.6,9.33-.29,3.29-1.37,6.2-3.23,8.73-1.85,2.52-4.22,4.42-7.1,5.71-2.88,1.29-6.01,1.79-9.4,1.5l-10.4-.94-.94,10.31c-.08.92-.47,1.67-1.17,2.25-.7.59-1.51.85-2.44.77ZM365.04,357.44l-2.1,23.33,10.48.94c2.3.21,4.36-.14,6.19-1.04,1.82-.9,3.28-2.18,4.38-3.83,1.09-1.67,1.74-3.55,1.94-5.65.19-2.11-.1-4.09-.9-5.94-.78-1.86-1.97-3.42-3.56-4.67-1.6-1.26-3.55-2-5.85-2.21l-10.56-.94Z"/><path class="br" d="M413.36,405.88c-3.49-.31-6.7-1.26-9.65-2.85-2.93-1.58-5.46-3.63-7.58-6.15-2.13-2.53-3.71-5.38-4.75-8.54-1.03-3.17-1.39-6.5-1.08-10,.32-3.48,1.27-6.69,2.85-9.63,1.58-2.93,3.65-5.44,6.19-7.54,2.54-2.11,5.4-3.68,8.56-4.71,3.18-1.04,6.51-1.41,10-1.1,3.48.32,6.7,1.27,9.65,2.85,2.94,1.58,5.48,3.64,7.63,6.17,2.15,2.53,3.76,5.38,4.81,8.54,1.07,3.17,1.44,6.49,1.13,9.98-.31,3.5-1.27,6.72-2.88,9.65-1.61,2.93-3.7,5.45-6.27,7.54-2.56,2.1-5.43,3.67-8.6,4.71-3.18,1.04-6.52,1.4-10,1.08ZM413.95,399.54c3.54.32,6.81-.22,9.81-1.63,3-1.42,5.45-3.48,7.35-6.21,1.9-2.72,3.01-5.86,3.33-9.42.32-3.58-.22-6.88-1.6-9.88-1.39-3-3.44-5.46-6.15-7.38-2.7-1.93-5.81-3.05-9.35-3.38-3.49-.3-6.72.25-9.71,1.67-2.97,1.41-5.41,3.46-7.31,6.17-1.89,2.71-2.99,5.85-3.31,9.44-.32,3.56.21,6.84,1.58,9.85,1.39,3.02,3.42,5.49,6.1,7.42,2.68,1.92,5.76,3.03,9.25,3.33Z"/><path class="br" d="M468.76,392.52l7.6,12.9c.63,1.03.88,1.96.77,2.79-.1.84-.53,1.5-1.29,1.96-.78.5-1.66.7-2.63.6-.97-.08-1.75-.61-2.33-1.58l-9.1-15.33c-.52,0-1.03,0-1.54-.02-.5-.03-1.04-.07-1.6-.13l-9.4-.83-1.1,12.17c-.08.92-.47,1.67-1.17,2.25-.7.59-1.51.85-2.44.77-.93-.08-1.7-.48-2.31-1.19-.61-.71-.88-1.52-.79-2.44l3.83-42.65c.08-.93.48-1.68,1.21-2.25.72-.58,1.55-.83,2.48-.75l13.79,1.23c3.33.29,6.3,1.32,8.92,3.08,2.61,1.77,4.6,4.02,5.98,6.75,1.39,2.74,1.94,5.72,1.65,8.96-.32,3.7-1.45,6.66-3.4,8.9-1.93,2.24-4.31,3.84-7.13,4.81ZM451.72,365.23l-1.92,21.4,10.48.94c3.39.31,6.23-.43,8.52-2.21,2.3-1.79,3.59-4.17,3.85-7.15.18-2-.13-3.88-.92-5.63s-2.01-3.2-3.65-4.35c-1.63-1.17-3.56-1.85-5.81-2.06l-10.56-.94Z"/><path class="br" d="M480.65,361.63l32.58,2.92c.97.1,1.75.49,2.33,1.19.58.7.84,1.48.77,2.35-.07.77-.45,1.43-1.15,2-.7.56-1.53.79-2.5.69l-12.96-1.15-3.58,39.73c-.08.92-.47,1.67-1.17,2.25-.68.58-1.52.83-2.5.75-.88-.08-1.62-.48-2.23-1.19-.6-.69-.85-1.5-.77-2.42l3.58-39.73-12.96-1.17c-.86-.08-1.59-.47-2.19-1.17-.58-.69-.85-1.38-.79-2.04.08-.93.47-1.69,1.17-2.27.71-.58,1.49-.83,2.35-.75Z"/><path class="br" d="M542.54,416.85l-28.27-2.52c-.82-.18-1.52-.6-2.1-1.27-.58-.68-.83-1.48-.75-2.4l3.81-42.58c.08-.93.47-1.69,1.17-2.27.69-.58,1.53-.82,2.52-.73l28.04,2.5c.9.08,1.65.48,2.23,1.19.59.7.85,1.51.77,2.44-.06.71-.44,1.33-1.15,1.85-.7.53-1.49.75-2.4.67l-24.73-2.21-1.35,15.17,19.1,1.71c.92.08,1.64.44,2.17,1.06.54.63.78,1.35.71,2.17-.08.88-.45,1.6-1.1,2.19-.64.58-1.42.83-2.33.75l-19.1-1.71-1.4,15.63,24.73,2.21c.9.08,1.65.47,2.23,1.15.59.68.86,1.39.79,2.1-.08.86-.48,1.58-1.19,2.17-.7.58-1.49.83-2.4.75Z"/><path class="br" d="M651.98,698.21l-29.4-11.73c-.81-.43-1.42-1.1-1.83-2.02-.41-.91-.42-1.83-.04-2.79l17.67-44.27c.38-.97,1.03-1.66,1.96-2.06.93-.4,1.9-.4,2.92,0l29.15,11.63c.97.38,1.65,1.04,2.04,1.98.4.93.42,1.89.04,2.85-.31.74-.91,1.28-1.81,1.63-.91.35-1.84.33-2.81-.04l-25.71-10.25-6.29,15.77,19.88,7.92c.94.38,1.6.98,1.98,1.81.39.83.42,1.68.08,2.54-.36.91-.99,1.56-1.88,1.98-.88.42-1.79.44-2.73.06l-19.88-7.92-6.48,16.27,25.71,10.25c.97.38,1.66,1.01,2.06,1.92.4.9.45,1.73.15,2.48-.36.92-1.01,1.57-1.94,1.96-.92.4-1.86.42-2.83.04Z"/><path class="br" d="M716.34,664.48c.97.39,1.65,1.04,2.02,1.96s.38,1.83.02,2.73l-17.71,44.46c-.6,1.48-1.75,2.27-3.46,2.35-.68.01-1.34-.2-1.98-.65-.63-.43-1.06-1.09-1.31-1.98l-15.08-49.71-14.21,35.63c-.39.96-1.05,1.63-1.98,2.02-.93.4-1.88.42-2.83.04-.97-.39-1.68-1.06-2.1-2-.42-.93-.43-1.88-.04-2.83l17.65-44.29c.32-.79.8-1.4,1.46-1.81.67-.43,1.33-.64,2-.63.76-.01,1.5.22,2.21.69.71.47,1.2,1.14,1.48,2l14.96,49.29,14.06-35.31c.36-.9,1.01-1.55,1.94-1.96.93-.4,1.9-.4,2.92,0Z"/><path class="br" d="M722.12,666.78l33.85,13.5c1.03.41,1.74,1.07,2.15,2,.4.93.42,1.85.06,2.75-.32.81-.95,1.4-1.88,1.77-.92.38-1.89.36-2.92-.04l-13.44-5.38-16.46,41.33c-.39.96-1.06,1.64-2,2.04-.93.4-1.9.4-2.9,0-.92-.36-1.59-1.02-2.02-1.96-.43-.95-.45-1.9-.06-2.85l16.46-41.33-13.44-5.35c-.92-.38-1.58-1.03-1.98-1.96-.39-.93-.45-1.73-.17-2.42.38-.97,1.03-1.66,1.96-2.06.93-.4,1.85-.42,2.77-.04Z"/><path class="br" d="M772.31,725.01l4.04,16.19c.34,1.3.33,2.4-.04,3.27s-1.04,1.43-2,1.67c-.99.28-1.99.21-3-.21-1.02-.41-1.68-1.22-2-2.44l-4.83-19.29c-.56-.17-1.11-.34-1.67-.52-.54-.18-1.1-.39-1.67-.63l-9.79-3.9-5.04,12.67c-.39.96-1.05,1.63-1.98,2.02-.93.4-1.88.42-2.83.04-.97-.39-1.68-1.06-2.1-2-.42-.93-.43-1.88-.04-2.83l17.69-44.35c.38-.97,1.03-1.65,1.98-2.04.96-.4,1.92-.41,2.9-.02l14.33,5.71c3.47,1.39,6.32,3.45,8.54,6.17,2.23,2.71,3.65,5.74,4.25,9.1.61,3.36.25,6.72-1.08,10.08-1.53,3.85-3.68,6.66-6.46,8.44-2.78,1.77-5.84,2.72-9.19,2.88ZM762.81,690.43l-8.88,22.25,10.9,4.33c3.53,1.41,6.8,1.52,9.83.35,3.04-1.18,5.18-3.32,6.42-6.42.83-2.08,1.09-4.19.79-6.31-.29-2.13-1.13-4.06-2.5-5.81s-3.24-3.09-5.58-4.02l-10.98-4.38Z"/><path class="br" d="M809.55,761.03l-29.4-11.73c-.81-.43-1.42-1.1-1.83-2.02-.41-.91-.42-1.83-.04-2.79l17.67-44.27c.38-.97,1.03-1.66,1.96-2.06.93-.4,1.9-.4,2.92,0l29.15,11.63c.97.38,1.65,1.04,2.04,1.98.4.93.42,1.89.04,2.85-.31.74-.91,1.28-1.81,1.63-.91.35-1.84.33-2.81-.04l-25.71-10.25-6.29,15.77,19.88,7.92c.94.38,1.6.98,1.98,1.81.39.83.42,1.68.08,2.54-.36.91-.99,1.56-1.88,1.98-.88.42-1.79.44-2.73.06l-19.88-7.92-6.48,16.27,25.71,10.25c.97.38,1.66,1.01,2.06,1.92.4.9.45,1.73.15,2.48-.36.92-1.01,1.57-1.94,1.96-.92.4-1.86.42-2.83.04Z"/><path class="br" d="M836.86,772.65c-3.47-1.39-6.47-3.38-9-5.96-2.53-2.58-4.5-5.56-5.92-8.94-1.41-3.38-2.16-6.91-2.27-10.6-.1-3.69.57-7.32,2-10.9,1.4-3.53,3.38-6.63,5.94-9.29,2.57-2.67,5.53-4.75,8.9-6.25,3.36-1.5,6.88-2.32,10.56-2.46,3.68-.14,7.33.52,10.96,1.96,3.47,1.39,6.42,3.23,8.83,5.52,2.43,2.29,4.48,5.22,6.15,8.79.48.96.63,1.93.44,2.9-.2.96-.74,1.7-1.63,2.21-.81.49-1.71.52-2.71.08-1-.43-1.77-1.06-2.31-1.9-1.17-2.51-2.72-4.73-4.65-6.65-1.93-1.92-4.16-3.38-6.67-4.38-3.42-1.36-6.91-1.77-10.46-1.23-3.54.54-6.77,1.95-9.69,4.21-2.92,2.27-5.15,5.32-6.69,9.17-1.41,3.53-1.88,7.12-1.42,10.77.47,3.64,1.78,6.93,3.92,9.85,2.15,2.93,5.01,5.1,8.58,6.52,2.46.98,4.98,1.56,7.56,1.73,2.59.17,5.08-.24,7.46-1.21l3.35-8.42-9.46-3.77c-.96-.39-1.64-1.03-2.02-1.92-.38-.89-.42-1.71-.13-2.46.38-.9,1-1.53,1.88-1.9.89-.38,1.81-.36,2.77.02l12.42,4.94c.94.39,1.65,1.05,2.13,1.98.47.93.51,1.88.13,2.83l-4.9,12.33c-.54,1.33-1.56,2.23-3.04,2.69-3.81,1.33-7.4,1.96-10.77,1.9-3.36-.07-6.78-.8-10.25-2.19Z"/><path class="br" d="M900.48,741.48l1.08,50.56c.07,1.19-.39,2.23-1.35,3.1-.96.89-2.15,1.11-3.56.67-1.6-.63-2.41-1.78-2.44-3.46l-.06-10.33-24.83-9.9-7.13,7.46c-1.18,1.25-2.53,1.52-4.04.81-1.32-.6-2.07-1.52-2.25-2.77-.18-1.25.2-2.36,1.15-3.33l35.4-35.92c.79-.75,1.63-1.3,2.5-1.65.88-.36,1.82-.34,2.85.06,1,.41,1.69.95,2.08,1.63.39.67.59,1.69.6,3.06ZM894,746.32l-19.54,20.44,19.71,7.85-.17-28.29Z"/><path class="br" d="M645.21,447.69l16.08,10.98c.63.43,1.01,1.01,1.17,1.73.17.72.09,1.31-.23,1.77-.43.63-1.02,1.01-1.77,1.15-.74.14-1.42-.01-2.04-.44l-18.35-12.54c-1.56-1.06-1.82-2.34-.79-3.85l19.98-29.21c.43-.64,1.02-1.02,1.77-1.15.76-.13,1.46.03,2.1.46.63.43,1.01,1.02,1.15,1.77.15.74.01,1.43-.42,2.06l-18.65,27.27Z"/><path class="br" d="M675.39,475.13c-2.39-1.64-4.33-3.63-5.81-5.96-1.47-2.32-2.47-4.82-2.98-7.5-.52-2.67-.51-5.35.02-8.06.53-2.71,1.61-5.26,3.25-7.65,1.64-2.39,3.61-4.32,5.94-5.79,2.33-1.47,4.84-2.45,7.52-2.94,2.68-.5,5.36-.48,8.06.04,2.71.53,5.26,1.61,7.65,3.25,2.39,1.64,4.32,3.63,5.79,5.96,1.48,2.32,2.49,4.83,3.02,7.52.54,2.68.55,5.38.04,8.08-.5,2.72-1.57,5.28-3.21,7.67-1.64,2.39-3.64,4.31-5.98,5.77-2.35,1.47-4.88,2.44-7.58,2.92-2.7.48-5.4.46-8.1-.06-2.7-.53-5.24-1.61-7.63-3.25ZM678.35,470.79c2.42,1.65,4.99,2.57,7.73,2.77,2.73.19,5.34-.31,7.81-1.52,2.48-1.2,4.55-3,6.21-5.42,1.68-2.46,2.63-5.05,2.83-7.77.21-2.72-.28-5.32-1.46-7.79-1.18-2.48-2.98-4.55-5.4-6.21-2.39-1.64-4.94-2.55-7.65-2.73-2.71-.18-5.29.33-7.75,1.52-2.46,1.18-4.53,3-6.21,5.46-1.66,2.42-2.6,4.99-2.83,7.73-.22,2.74.24,5.33,1.4,7.79,1.15,2.47,2.92,4.53,5.31,6.17Z"/><path class="br" d="M709.81,498.66c-2.32-1.58-4.21-3.54-5.67-5.85-1.45-2.31-2.4-4.79-2.85-7.46-.46-2.65-.43-5.32.08-8.02.51-2.69,1.57-5.21,3.19-7.56,1.54-2.25,3.44-4.13,5.71-5.63,2.26-1.5,4.71-2.55,7.33-3.15,2.64-.59,5.3-.67,8-.21,2.71.46,5.27,1.52,7.69,3.17,4.65,3.17,7.6,7.5,8.85,13,.19.75.13,1.46-.19,2.13-.32.66-.82,1.1-1.5,1.35-.72.22-1.41.1-2.06-.35-.64-.46-1.07-1.05-1.29-1.79-.47-2.01-1.25-3.86-2.33-5.54-1.08-1.69-2.47-3.11-4.17-4.27-2.29-1.57-4.78-2.44-7.46-2.63-2.67-.19-5.23.3-7.69,1.48-2.46,1.18-4.56,3.04-6.29,5.58-1.58,2.31-2.5,4.81-2.75,7.52-.25,2.7.16,5.27,1.23,7.73,1.08,2.46,2.8,4.49,5.17,6.1,3.44,2.36,7.28,3.26,11.52,2.71.76-.04,1.47.15,2.13.56.67.42,1.01,1,1.02,1.75.05.75-.17,1.38-.67,1.88-.5.51-1.14.84-1.92,1-2.86.4-5.54.3-8.02-.31-2.49-.61-4.84-1.68-7.06-3.19Z"/><path class="br" d="M760.7,486.31l-7.4,36.73c-.14.89-.64,1.57-1.48,2.06-.83.48-1.74.44-2.71-.15-1.06-.72-1.45-1.69-1.19-2.9l1.63-7.48-16.33-11.17-6.38,4.23c-1.06.72-2.08.7-3.06-.06-.83-.63-1.22-1.41-1.17-2.33.07-.94.53-1.69,1.4-2.25l31.38-20.25c.69-.4,1.39-.66,2.08-.77.69-.11,1.38.06,2.04.5.67.46,1.08.97,1.25,1.52.17.56.15,1.33-.06,2.31ZM755.22,488.77l-17.44,11.6,12.96,8.85,4.48-20.46Z"/><path class="br" d="M758.88,525.4l16.08,10.98c.63.43,1.01,1.01,1.17,1.73.17.72.09,1.31-.23,1.77-.43.63-1.02,1.01-1.77,1.15-.74.14-1.42-.01-2.04-.44l-18.35-12.54c-1.56-1.06-1.82-2.34-.79-3.85l19.98-29.21c.43-.64,1.02-1.02,1.77-1.15.76-.13,1.46.03,2.1.46.63.43,1.01,1.02,1.15,1.77.15.74.01,1.43-.42,2.06l-18.65,27.27Z"/><path class="br" d="M775.92,543.22c-.64-.43-1.04-1.03-1.21-1.79-.16-.75-.02-1.44.42-2.06l20-29.25c.44-.64,1.03-1.01,1.77-1.13.75-.11,1.44.05,2.08.48.63.43,1.01,1.02,1.17,1.75.17.72.03,1.41-.42,2.04l-20,29.25c-.43.63-1.02,1.01-1.77,1.15-.74.14-1.42-.01-2.04-.44Z"/><path class="br" d="M788.6,545.72l17.56,12c.59.4.96.96,1.1,1.67.15.72.05,1.34-.31,1.88-.39.55-.95.9-1.69,1.04-.72.15-1.39.03-1.98-.38l-21.42-14.65c-.89-.6-1.39-1.26-1.48-1.98-.1-.72.03-1.34.4-1.88.39-.55.98-.98,1.79-1.29l36.6-12.67-16.98-11.6c-.63-.43-1.02-1.01-1.17-1.75-.14-.75-.02-1.4.38-1.96.36-.53.91-.84,1.65-.96.75-.11,1.44.05,2.08.48l20.81,14.25c.79.53,1.24,1.16,1.35,1.88.13.72,0,1.37-.38,1.94-.42.6-1.02,1.02-1.81,1.25l-36.52,12.73Z"/><path class="br" d="M842.6,542.3l-7.4,36.73c-.14.89-.64,1.57-1.48,2.06-.83.48-1.74.44-2.71-.15-1.06-.72-1.45-1.69-1.19-2.9l1.63-7.48-16.33-11.17-6.38,4.23c-1.06.72-2.08.7-3.06-.06-.83-.63-1.22-1.41-1.17-2.33.07-.94.53-1.69,1.4-2.25l31.38-20.25c.69-.4,1.39-.66,2.08-.77.69-.11,1.38.06,2.04.5.67.46,1.08.97,1.25,1.52.17.56.15,1.33-.06,2.31ZM837.12,544.76l-17.44,11.6,12.96,8.85,4.48-20.46Z"/><path class="br" d="M848.46,593.45c-2.32-1.58-4.21-3.54-5.67-5.85-1.45-2.31-2.4-4.79-2.85-7.46-.46-2.65-.43-5.32.08-8.02.51-2.69,1.57-5.21,3.19-7.56,1.54-2.25,3.44-4.13,5.71-5.63,2.26-1.5,4.71-2.55,7.33-3.15,2.64-.59,5.3-.67,8-.21,2.71.46,5.27,1.52,7.69,3.17,4.65,3.17,7.6,7.5,8.85,13,.19.75.13,1.46-.19,2.13-.32.66-.82,1.1-1.5,1.35-.72.22-1.41.1-2.06-.35-.64-.46-1.07-1.05-1.29-1.79-.47-2.01-1.25-3.86-2.33-5.54-1.08-1.69-2.47-3.11-4.17-4.27-2.29-1.57-4.78-2.44-7.46-2.63-2.67-.19-5.23.3-7.69,1.48-2.46,1.18-4.56,3.04-6.29,5.58-1.58,2.31-2.5,4.81-2.75,7.52-.25,2.7.16,5.27,1.23,7.73,1.08,2.46,2.8,4.49,5.17,6.1,3.44,2.36,7.28,3.26,11.52,2.71.76-.04,1.47.15,2.13.56.67.42,1.01,1,1.02,1.75.05.75-.17,1.38-.67,1.88-.5.51-1.14.84-1.92,1-2.86.4-5.54.3-8.02-.31-2.49-.61-4.84-1.68-7.06-3.19Z"/><path class="br" d="M865.56,604.5c-.64-.43-1.04-1.03-1.21-1.79-.16-.75-.02-1.44.42-2.06l20-29.25c.44-.64,1.03-1.01,1.77-1.13.75-.11,1.44.05,2.08.48.63.43,1.01,1.02,1.17,1.75.17.72.03,1.41-.42,2.04l-20,29.25c-.43.63-1.02,1.01-1.77,1.15-.74.14-1.42-.01-2.04-.44Z"/><path class="br" d="M910.31,579.86c-.49-.33-.78-.78-.88-1.35-.08-.58.02-1.13.31-1.65.3-.51.81-.84,1.52-.98l7.15-1.4c.61-.14,1.18-.03,1.71.33.57.38.9.85,1,1.44.09.58-.01,1.14-.31,1.65-.31.52-.81.83-1.52.96l-7.19,1.35c-.32.11-.64.13-.96.04-.31-.08-.58-.21-.83-.4ZM886.45,619.42c-2.39-1.64-4.33-3.63-5.81-5.96-1.47-2.32-2.47-4.82-2.98-7.5-.52-2.67-.51-5.35.02-8.06.53-2.71,1.61-5.26,3.25-7.65,1.64-2.39,3.61-4.32,5.94-5.79,2.33-1.47,4.84-2.45,7.52-2.94,2.68-.5,5.36-.48,8.06.04,2.71.53,5.26,1.61,7.65,3.25,2.39,1.64,4.32,3.63,5.79,5.96,1.48,2.32,2.49,4.83,3.02,7.52.54,2.68.55,5.38.04,8.08-.5,2.72-1.57,5.28-3.21,7.67-1.64,2.39-3.64,4.31-5.98,5.77-2.35,1.47-4.88,2.44-7.58,2.92-2.7.48-5.4.46-8.1-.06-2.7-.53-5.24-1.61-7.63-3.25ZM889.41,615.08c2.42,1.65,4.99,2.57,7.73,2.77,2.73.19,5.34-.31,7.81-1.52,2.48-1.2,4.55-3,6.21-5.42,1.68-2.46,2.63-5.05,2.83-7.77.21-2.72-.28-5.32-1.46-7.79-1.18-2.48-2.98-4.55-5.4-6.21-2.39-1.64-4.94-2.55-7.65-2.73-2.71-.18-5.29.33-7.75,1.52-2.46,1.18-4.53,3-6.21,5.46-1.66,2.42-2.6,4.99-2.83,7.73-.22,2.74.24,5.33,1.4,7.79,1.15,2.47,2.92,4.53,5.31,6.17Z"/><path class="br" d="M954.87,616.06c.64.43,1.02,1.01,1.15,1.73.13.72-.02,1.39-.44,2l-20,29.25c-.67.98-1.63,1.38-2.88,1.17-.5-.11-.95-.38-1.33-.79-.39-.42-.6-.97-.63-1.67l-2.85-38.38-16.04,23.46c-.43.63-1.02,1.01-1.77,1.15-.74.14-1.42-.01-2.04-.44-.64-.43-1.04-1.03-1.21-1.79-.16-.75-.02-1.44.42-2.06l19.94-29.15c.36-.53.81-.89,1.35-1.08.55-.19,1.07-.23,1.56-.1.54.11,1.03.4,1.48.85.44.45.69,1,.75,1.67l2.81,38.06,15.9-23.25c.42-.61.99-.98,1.73-1.1.75-.14,1.45.02,2.1.48Z"/><path class="br" d="M390.65,58.88c-8.97.24-10.98.47-15.98,1.98-5.98,1.8-12.02,5.1-17.29,9.49-8.26,6.87-15.09,18.52-16.93,28.78-.74,4.22-.74,15.04,0,19.17,1.72,9.46,6.6,18.63,13.62,25.68,5.35,5.36,10.3,8.7,17.1,11.62,3.41,1.41,5.68,1.94,10.45,2.35,4.29.39,26.02.8,53.57,1.04l20.72.2,2.37.74c8.49,2.71,13.7,5.66,18.97,10.76,12.9,12.5,16.1,30.98,8.08,46.91-3.94,7.81-10.89,14.39-19.56,18.48-3.53,1.65-5.48,2.21-9.56,2.66-5.56.59-24.83.88-62.75.88-35.96,0-46.82.21-50.46.89-4.17.8-7.81,3.81-10.09,8.38-1.18,2.39-1.27,2.71-1.39,5.57-.23,5.31.86,8.34,4.41,12.11,2.6,2.8,4.65,3.86,8.26,4.31,6.48.82,53.1,1.12,92.2.59,20.78-.3,23.35-.41,28.85-1.51,3.85-.77,11.78-3.36,15.45-5.07,15.42-7.17,27.91-19.58,35.22-34.94,3.2-6.69,5.66-15.18,6.43-22.23.47-4.16.38-13.95-.12-17.57-1.16-7.99-3.2-14.66-6.78-22.03-5.77-11.82-13.88-21.11-24.86-28.42-7.9-5.28-12.76-7.4-24.33-10.58l-5.3-1.47-38.71-.32-38.74-.32-2.69-1.39c-4.94-2.54-9.08-7.58-10.3-12.47-.51-2.06-.51-6.46,0-8.55.8-3.33,2.28-5.87,5.03-8.58,2.22-2.18,2.99-2.71,5.98-4.19l3.4-1.68,27.08-.03c14.89-.03,36.26-.15,47.51-.23l20.45-.18-8.2-6.75c-4.53-3.72-8.38-7.05-8.56-7.46-.47-1-.41-1.89.21-2.8.27-.44,4.11-3.74,8.49-7.34,4.41-3.59,8.05-6.57,8.11-6.63.24-.21-80.95-.03-89.35.17Z"/><path class="br" d="M479.5,65.25c-4.44,3.66-8.29,6.99-8.55,7.4-.8,1.21-.59,2.68.56,3.8.53.53,4.38,3.74,8.53,7.17l7.55,6.22h11.45l-4.53-3.74c-2.52-2.03-6.16-5.04-8.11-6.63-3.73-3.07-4.59-4.04-4.59-5.25s.86-2.18,4.59-5.25c1.95-1.59,5.59-4.6,8.11-6.63l4.53-3.74h-11.45l-8.08,6.66Z"/><path class="br" d="M497.94,65.48c-7.31,6.05-8.32,6.96-8.55,7.93-.18.68-.18,1.42,0,1.89.18.51,3.28,3.28,8.7,7.73l8.44,6.96,11.1.03c6.1,0,11.87.03,12.82.06l1.69.06.03,48.7c0,56.9.42,116.69.83,120.15.36,3.13,1.57,5.48,4.06,7.9,3.43,3.3,7.34,4.71,12.61,4.51,2.81-.12,3.34-.24,5.15-1.12,2.69-1.33,6.07-4.57,7.84-7.55l1.39-2.33.2-85.11.21-85.09,9.39-.12,9.35-.08,2.72-1.71c5.63-3.54,8.38-8.17,8.38-14.06,0-6.43-3.61-11.7-9.97-14.68l-1.71-.8-76.36-.11-8.29,6.86Z"/><path class="br" d="M608.16,59.58c-2.13.44-4.15,1.74-6.6,4.28-2.81,2.92-3.37,4.28-3.76,9.35-.18,2.65-.35,36.23-.47,95.23l-.18,91.13,1.45,2.77c3.11,6.04,7.93,9.11,14.3,9.11,4.65,0,7.46-1.06,10.95-4.13,2.6-2.27,3.31-3.36,3.84-5.9.83-3.8.89-9.64,1.6-115.95l.06-9.05,14.8,26.45c8.11,14.56,21.99,39.33,30.78,55.07,8.82,15.71,18.08,32.31,20.57,36.85,2.48,4.54,5.06,9.02,5.68,9.93,1.24,1.86,2.81,3.24,5.42,4.75,2.55,1.47,4.53,1.97,7.81,1.97s5.77-.73,8.32-2.36c2.04-1.3,4.97-4.54,6.28-6.9l1.09-1.98.09-93.07c.09-102.87.27-94.29-1.9-98.83-3.28-6.87-10.56-10.17-18.14-8.26-4.06,1.03-7.25,3.36-9.47,6.93-1.24,1.97-1.39,2.39-1.66,4.93-.39,3.8-.86,30.42-.86,50.09,0,9.02-.09,28.74-.21,43.84l-.18,27.42-17.76-31.72c-9.74-17.45-22.67-40.51-28.71-51.21-23.89-42.42-26.19-46.41-27.76-47.73-1.6-1.36-3.7-2.45-5.74-2.98-2.1-.53-7.22-.56-9.65-.03Z"/></g></svg>